<?xml version="1.0" encoding="utf-8"?>
<!-- Generator: Adobe Illustrator 15.1.0, SVG Export Plug-In . SVG Version: 6.00 Build 0)  -->
<!DOCTYPE svg PUBLIC "-//W3C//DTD SVG 1.1//EN" "http://www.w3.org/Graphics/SVG/1.1/DTD/svg11.dtd">
<svg version="1.1" id="Layer_1" xmlns="http://www.w3.org/2000/svg" xmlns:xlink="http://www.w3.org/1999/xlink" x="0px" y="0px"
	 width="239px" height="101px" viewBox="0 0 239 101" enable-background="new 0 0 239 101" xml:space="preserve">
<g>
	
		<rect x="322.47" y="-190.13" transform="matrix(-0.974 -0.2265 0.2265 -0.974 775.5942 -284.6079)" fill="#FFF200" width="98" height="6.666"/>
	<g>
		<g>
			<path fill="#FFF200" d="M193.972-212.847c0,0,15.424,0.594,25.389-16.223c9.961-16.816,35.94,0.266,44.873,6.727
				c8.929,6.461,40.083,26.552,63.01,18.271c0,0,20.475,27.606-0.085,21.32c-0.886,9.195-3.267,17.986-9.106,18.474
				c-4.385,1.283-8.8-0.575-12.666-8.058c-10.067,11.168-15.372,19.487-30.417-4.001c-28.975,17.585-50.98-0.505-51.841-10.237
				c-0.126-1.451-0.147-3.145-0.071-5.021C201.326-190.998,182.277-208.104,193.972-212.847z"/>
			<path fill="#EEDC00" d="M326.935-204.37c0,0,20.725,27.405-0.235,22.071c0,0-2.132,33.56-21.79,10.354
				c0,0,17.88,2.677,15.554-13.239c-2.328-15.917-14.461-17.648-14.461-17.648S316.603-200.37,326.935-204.37z"/>
		</g>
		<path fill="#EEDC00" d="M242.403-195.953c0,0-24.916,16.996-25.341-9.035C217.062-204.988,221.82-187.625,242.403-195.953z"/>
		<path fill="#EEDC00" d="M236.288-209.186c0,0-24.916,16.994-25.341-9.035C210.947-218.221,215.706-200.859,236.288-209.186z"/>
		<path fill="#EEDC00" d="M268.872-187.892c0,0-24.916,16.995-25.342-9.034C243.529-196.926,248.289-179.564,268.872-187.892z"/>
		<path fill="#EEDC00" d="M287.386-198.273c0,0-24.916,16.995-25.342-9.035C262.043-207.308,266.803-189.946,287.386-198.273z"/>
		<path fill="#EEDC00" d="M273.667-176.422c0,0-15.559,13.721-18.065-4.01C255.602-180.432,260.329-168.987,273.667-176.422z"/>
		<path fill="#EEDC00" d="M246.389-184.966c0,0-15.557,13.72-18.064-4.009C228.325-188.975,233.05-177.529,246.389-184.966z"/>
		<path fill="#EEDC00" d="M304.16-172.824c0,0-15.556,13.72-18.064-4.01C286.096-176.834,290.822-165.388,304.16-172.824z"/>
		<path fill="#EEDC00" d="M294.806-185.705c0,0-19.776,22.771-26.806-2.295C268-188,277.015-172.417,294.806-185.705z"/>
	</g>
</g>
<g>
	
		<rect x="649.548" y="-191.046" transform="matrix(0.9716 -0.2367 0.2367 0.9716 64.2756 159.9998)" fill="#FFF200" width="98" height="6.666"/>
	<g>
		<g>
			<path fill="#FFF200" d="M875.763-215.621c0,0-15.417,0.755-25.557-15.956c-10.137-16.711-35.936,0.642-44.801,7.197
				c-8.859,6.554-39.802,26.97-62.814,18.93c0,0-20.185,27.819,0.309,21.318c0.981,9.185,3.455,17.951,9.299,18.376
				c4.398,1.237,8.793-0.667,12.581-8.189c10.184,11.063,15.575,19.325,30.373-4.32c29.158,17.281,50.973-1.04,51.731-10.779
				c0.111-1.452,0.114-3.146,0.019-5.021C868.639-193.697,887.507-211,875.763-215.621z"/>
			<path fill="#EEDC00" d="M742.896-205.751c0,0-20.437,27.621,0.467,22.067c0,0,2.483,33.535,21.896,10.125
				c0,0-17.851,2.865-15.691-13.075c2.161-15.941,14.275-17.798,14.275-17.798S753.271-201.859,742.896-205.751z"/>
		</g>
		<path fill="#EEDC00" d="M827.512-198.221c0,0,25.093,16.734,25.245-9.3C852.757-207.521,848.182-190.108,827.512-198.221z"/>
		<path fill="#EEDC00" d="M833.488-211.517c0,0,25.092,16.732,25.245-9.3C858.733-220.817,854.156-203.407,833.488-211.517z"/>
		<path fill="#EEDC00" d="M801.129-189.883c0,0,25.093,16.733,25.246-9.299C826.375-199.182,821.798-181.771,801.129-189.883z"/>
		<path fill="#EEDC00" d="M782.508-200.069c0,0,25.092,16.733,25.246-9.299C807.754-209.369,803.177-191.958,782.508-200.069z"/>
		<path fill="#EEDC00" d="M796.454-178.363c0,0,15.702,13.557,18.022-4.199C814.477-182.562,809.869-171.068,796.454-178.363z"/>
		<path fill="#EEDC00" d="M823.642-187.192c0,0,15.7,13.557,18.021-4.198C841.663-191.391,837.058-179.896,823.642-187.192z"/>
		<path fill="#EEDC00" d="M766-174.446c0,0,15.699,13.556,18.021-4.199C784.021-178.645,779.416-167.15,766-174.446z"/>
		<path fill="#EEDC00" d="M775.22-187.424c0,0,20.014,22.563,26.78-2.576C802-190,793.148-174.324,775.22-187.424z"/>
	</g>
</g>
<g>
	<g>
		<path fill="#FFF200" d="M1076.793-279.806c0,0,14.803,4.376,28.604-9.467c13.797-13.844,34.768,9.112,41.832,17.575
			c7.063,8.462,32.307,35.608,56.566,33.232c0,0,13.043,31.799-5.334,20.641c-3.123,8.694-7.598,16.627-13.377,15.661
			c-4.566,0.163-8.385-2.726-10.291-10.93c-12.506,8.344-19.697,15.101-28.492-11.372c-32.416,9.906-49.287-13.05-47.723-22.692
			c0.234-1.438,0.633-3.084,1.17-4.885C1078.537-256.818,1064.291-278.09,1076.793-279.806z"/>
		<path fill="#EEDC00" d="M1203.57-238.833c0,0,13.334,31.667-5.666,21.333c0,0-10.334,32-23.668,4.667c0,0,16.668,7,18.334-9
			s-9.666-20.667-9.666-20.667S1192.57-237.5,1203.57-238.833z"/>
	</g>
	<path fill="#EEDC00" d="M1119.57-251.5c0,0-28.334,10.333-22.334-15C1097.236-266.5,1097.57-248.5,1119.57-251.5z"/>
	<path fill="#EEDC00" d="M1116.902-265.833c0,0-28.334,10.333-22.334-15C1094.568-280.833,1094.902-262.833,1116.902-265.833z"/>
	<path fill="#EEDC00" d="M1143.236-237.167c0,0-28.334,10.333-22.334-15C1120.902-252.167,1121.236-234.167,1143.236-237.167z"/>
	<path fill="#EEDC00" d="M1163.736-242.667c0,0-28.334,10.333-22.334-15C1141.402-257.667,1141.736-239.667,1163.736-242.667z"/>
	<path fill="#EEDC00" d="M1145.059-224.87c0,0-18.459,9.465-16.52-8.336C1128.539-233.206,1130.299-220.949,1145.059-224.87z"/>
	<path fill="#EEDC00" d="M1120.727-239.87c0,0-18.459,9.465-16.521-8.336C1104.205-248.206,1105.967-235.949,1120.727-239.87z"/>
	<path fill="#EEDC00" d="M1173.727-213.87c0,0-18.459,9.465-16.521-8.336C1157.205-222.206,1158.967-209.949,1173.727-213.87z"/>
	<path fill="#EEDC00" d="M1167.832-228.658c0,0-24.775,17.198-25.414-8.828C1142.418-237.486,1147.318-220.163,1167.832-228.658z"/>
</g>
<path fill="#FFF200" d="M614.753-137.084c1.241-4.913,1.914-10.01,1.914-15.245c0-7.4-1.311-14.535-3.735-21.242
	c6.265,0.249,14.318-3.155,14.318-3.155c-9.476,0.838-16.806-4.599-18.413-5.901c-2.624-4.808-5.859-9.313-9.607-13.455
	c4.991-1.561,8.521-3.949,8.521-3.949c-4.976,2.913-14.341-2.533-18.462-5.248c-7.454-5.77-16.132-10.373-25.657-13.486
	c7.693-6.862,9.619-15.985,9.619-15.985c-5.289,5.898-21.213,9.516-29.445,11.043c1.185-3.696,1.945-7.238,1.945-7.238
	c-2.671,3.684-6.838,6.146-10.143,7.64c-0.298-0.003-0.591-0.02-0.89-0.02c-35.399,0-65.553,19.445-77.013,46.677
	c-0.458,0.793-4.836,8.109-11.455,9.908c0,0,3.743,0.744,8.096,0.525c-1.028,4.491-1.578,9.132-1.578,13.885
	c0,4.517,0.508,8.928,1.438,13.21c0.471,4.358,0.796,11.572-1.957,13.044c0,0,3.156-1.065,4.668-3.95
	c10.797,28.279,41.537,48.692,77.8,48.692c36.31,0,67.085-20.467,77.843-48.804c2.09,5.182,5.939,6.916,5.939,6.916
	C615.229-125.167,614.8-133.95,614.753-137.084z"/>
<g>
	<path fill="#F15A29" d="M443.166,41.541c0,0,33,5,76.25,0.25C519.416,41.791,478.916,68.041,443.166,41.541z"/>
	<path fill="#F7941E" d="M442.666,41.541c0,0,38.25-14.5,76.25,0.25C518.916,41.791,482.166,49.041,442.666,41.541z"/>
	<path opacity="0.5" fill="#FFFFFF" d="M497.728,37.832c0,0,8.876,0.125,15.397,3.875l-19.292,1.75
		C493.833,43.457,511.313,40.207,497.728,37.832z"/>
	<ellipse opacity="0.5" fill="#FFFFFF" cx="491.75" cy="43" rx="1.25" ry="0.898"/>
</g>
<g>
	<g>
		<circle cx="494.331" cy="-26.171" r="25"/>
		<path fill="#FFFFFF" d="M478.223-35.397c0,0-2.708,7.154-6.557,8.906c0,0,6.415,6.132,5.987,10.075c0,0,0.855-7.885,7.27-10.075
			C484.923-26.491,478.794-30.141,478.223-35.397z"/>
		<path fill="#FFFFFF" d="M483.672-43.897c0,0-1.139,3.008-2.757,3.745c0,0,2.697,2.578,2.518,4.236c0,0,0.359-3.315,3.057-4.236
			C486.49-40.152,483.913-41.687,483.672-43.897z"/>
		<path fill="#FFFFFF" d="M490.234-15.5c0,0-1.783,4.711-4.318,5.865c0,0,4.225,4.039,3.943,6.635c0,0,0.563-5.191,4.789-6.635
			C494.647-9.635,490.61-12.038,490.234-15.5z"/>
		<circle fill="#FFFFFF" cx="499.759" cy="-30.288" r="14.942"/>
		<circle fill="#FFFFFF" cx="501.25" cy="-11.25" r="2.586"/>
	</g>
	<g>
		<circle cx="574.498" cy="-27.005" r="25"/>
		<circle fill="#FFFFFF" cx="568.592" cy="-30.788" r="14.942"/>
		<path fill="#FFFFFF" d="M591.725-36.564c0,0-2.641,6.809-6.393,8.477c0,0,6.254,5.836,5.837,9.588c0,0,0.833-7.504,7.087-9.588
			C598.256-28.088,592.28-31.562,591.725-36.564z"/>
		<path fill="#FFFFFF" d="M584.672-48.647c0,0-1.139,3.008-2.756,3.745c0,0,2.697,2.578,2.518,4.236c0,0,0.359-3.315,3.057-4.236
			C587.49-44.902,584.912-46.437,584.672-48.647z"/>
		<path fill="#FFFFFF" d="M576.401-16.666c0,0-1.783,4.711-4.319,5.865c0,0,4.226,4.038,3.943,6.635c0,0,0.563-5.192,4.788-6.635
			C580.813-10.801,576.776-13.205,576.401-16.666z"/>
		<circle fill="#FFFFFF" cx="567" cy="-11.75" r="2.585"/>
	</g>
</g>
<g>
	<g>
		<path d="M643.5-22.102c1.066-1.685,2.469-3.034,3.956-4.253c1.501-1.205,3.143-2.221,4.875-3.075
			c3.471-1.682,7.344-2.688,11.322-2.804c3.969-0.131,8.044,0.673,11.622,2.438c3.563,1.78,6.653,4.436,8.475,7.943
			c-3.851-0.815-7.145-1.568-10.385-1.949c-3.219-0.411-6.322-0.52-9.48-0.437c-3.155,0.09-6.363,0.382-9.708,0.799
			C650.813-23.04,647.388-22.514,643.5-22.102z"/>
	</g>
	<g>
		<path d="M723.5-21.102c1.066-1.685,2.469-3.034,3.956-4.253c1.501-1.205,3.143-2.221,4.875-3.075
			c3.471-1.682,7.344-2.688,11.322-2.804c3.969-0.131,8.044,0.673,11.622,2.438c3.563,1.78,6.653,4.436,8.475,7.943
			c-3.851-0.815-7.145-1.568-10.385-1.949c-3.219-0.411-6.322-0.52-9.48-0.437c-3.155,0.09-6.363,0.382-9.708,0.799
			C730.813-22.04,727.388-21.514,723.5-21.102z"/>
	</g>
</g>
<g>
	<g>
		<path d="M693.75,43.189c-0.38,0.042-0.753,0.077-1.132,0.117c0.4-0.072,0.632-0.117,0.632-0.117c-38-14.75-76.25-0.25-76.25-0.25
			c0.223,0.042,0.444,0.078,0.666,0.119C653.375,69.355,693.75,43.189,693.75,43.189z"/>
		<path fill="#F15A29" d="M617.5,42.939c0,0,30.25,10.833,76.25,0.25C693.75,43.189,656,79.334,617.5,42.939z"/>
		<path fill="#F7941E" d="M617,42.939c0,0,32-25.189,76.25,0.25C693.25,43.189,663.584,39.772,617,42.939z"/>
		<path opacity="0.5" fill="#FFFFFF" d="M665.728,34.332c0,0,8.876,0.125,15.397,3.875l-19.292,1.75
			C661.833,39.957,679.313,36.707,665.728,34.332z"/>
		<ellipse opacity="0.5" fill="#FFFFFF" cx="659.75" cy="39.5" rx="1.25" ry="0.898"/>
	</g>
</g>
<g>
	<path fill="#FFFFFF" d="M103.5-102.5c0,0,20-33,55-7c0,0,31-37,68.5,2c0,0,27-4.5,30,21.5c0,0,34.5-2.5,35.5,2c0,0,37,1.5,32.5,7.5
		s-53.5,14-64,10c0,0-56,17-64.5-3c0,0-56,34-85.5,8c0,0-21.5,17.5-46.5,4c0,0-99,1.5-48.5-20c0,0,7.5-19,35-10c0,0,11.5-21,32-13
		C83-100.5,91-112,103.5-102.5z"/>
	<path opacity="0.09" fill="#27AAE1" d="M171.5-105c0,0,32.5-11,44,9c0,0,27.5-1.5,29,14c0,0,6.5-20.5-23.5-19
		C221-101,199.5-130,171.5-105z"/>
	<path opacity="0.09" fill="#27AAE1" d="M51.5-80c0,0-14.5-9-24.5,6.5c0,0-20,7,10,9c0,0-8-5.5,0-7C37-71.5,33.5-79.5,51.5-80z"/>
	<path opacity="0.09" fill="#27AAE1" d="M122.5-69.5c0,0,29,13.5,63.5-4C186-73.5,156-48,122.5-69.5z"/>
</g>
<g>
	<path fill="#FFFFFF" d="M84.718,30.5c0,0,12.679-33,34.868-7c0,0,19.653-37,43.426,2c0,0,17.117-4.5,19.019,21.5
		c0,0,21.872-2.5,22.505,2c0,0,23.457,1.5,20.604,7.5c-2.853,6-33.917,14-40.573,10c0,0-35.501,17-40.89-3c0,0-35.501,34-54.203,8
		c0,0-13.63,17.5-29.479,4c0,0-62.762,1.5-30.747-20c0,0,4.754-19,22.188-10c0,0,7.291-21,20.287-13
		C71.722,32.5,76.793,21,84.718,30.5z"/>
	<path opacity="0.09" fill="#27AAE1" d="M128.5,26.5c0,0,16.5-15.5,26.5,2C155,28.5,146.5,3,128.5,26.5z"/>
	<g>
		<g>
			<path fill="#F1F2F2" d="M210.148,21.639c0.841,0,2.01-1.277,0.703-1.277C210.01,20.361,208.842,21.639,210.148,21.639
				L210.148,21.639z"/>
		</g>
	</g>
	<path opacity="0.09" fill="#27AAE1" d="M62.5,60.5c0,0,19.5,12,27.5-1c0,0,31.5,16,48-3.5c0,0-26,27.5-48,9.5
		C90,65.5,70,81,62.5,60.5z"/>
</g>
</svg>
