<?xml version="1.0" encoding="utf-8"?>
<!-- Generator: Adobe Illustrator 15.1.0, SVG Export Plug-In . SVG Version: 6.00 Build 0)  -->
<!DOCTYPE svg PUBLIC "-//W3C//DTD SVG 1.1//EN" "http://www.w3.org/Graphics/SVG/1.1/DTD/svg11.dtd">
<svg version="1.1" id="Layer_1" xmlns="http://www.w3.org/2000/svg" xmlns:xlink="http://www.w3.org/1999/xlink" x="0px" y="0px"
	 width="368px" height="91px" viewBox="0 0 368 91" enable-background="new 0 0 368 91" xml:space="preserve">
<g>
	
		<rect x="340.47" y="-59.13" transform="matrix(-0.974 -0.2265 0.2265 -0.974 781.4572 -21.9353)" fill="#FFF200" width="98" height="6.666"/>
	<g>
		<g>
			<path fill="#FFF200" d="M211.972-81.847c0,0,15.424,0.594,25.389-16.223c9.961-16.816,35.94,0.266,44.873,6.727
				c8.929,6.461,40.083,26.552,63.01,18.271c0,0,20.475,27.606-0.085,21.32c-0.886,9.195-3.267,17.986-9.106,18.474
				c-4.385,1.283-8.8-0.575-12.666-8.058c-10.067,11.168-15.372,19.487-30.417-4.001c-28.975,17.585-50.98-0.505-51.841-10.237
				c-0.126-1.451-0.147-3.145-0.071-5.021C219.326-59.998,200.277-77.104,211.972-81.847z"/>
			<path fill="#EEDC00" d="M344.935-73.37c0,0,20.725,27.405-0.235,22.071c0,0-2.132,33.56-21.79,10.354
				c0,0,17.88,2.677,15.554-13.239c-2.328-15.917-14.461-17.648-14.461-17.648S334.603-69.37,344.935-73.37z"/>
		</g>
		<path fill="#EEDC00" d="M260.403-64.953c0,0-24.916,16.996-25.341-9.035C235.062-73.988,239.82-56.625,260.403-64.953z"/>
		<path fill="#EEDC00" d="M254.288-78.186c0,0-24.916,16.994-25.341-9.035C228.947-87.221,233.706-69.859,254.288-78.186z"/>
		<path fill="#EEDC00" d="M286.872-56.892c0,0-24.916,16.995-25.342-9.034C261.529-65.926,266.289-48.564,286.872-56.892z"/>
		<path fill="#EEDC00" d="M305.386-67.273c0,0-24.916,16.995-25.342-9.035C280.043-76.308,284.803-58.946,305.386-67.273z"/>
		<path fill="#EEDC00" d="M291.667-45.422c0,0-15.559,13.721-18.065-4.01C273.602-49.432,278.329-37.987,291.667-45.422z"/>
		<path fill="#EEDC00" d="M264.389-53.966c0,0-15.557,13.72-18.064-4.009C246.325-57.975,251.05-46.529,264.389-53.966z"/>
		<path fill="#EEDC00" d="M322.16-41.824c0,0-15.556,13.72-18.064-4.01C304.096-45.834,308.822-34.388,322.16-41.824z"/>
		<path fill="#EEDC00" d="M312.806-54.705c0,0-19.776,22.771-26.806-2.295C286-57,295.015-41.417,312.806-54.705z"/>
	</g>
</g>
<g>
	
		<rect x="667.548" y="-60.046" transform="matrix(0.9716 -0.2367 0.2367 0.9716 33.7818 167.9821)" fill="#FFF200" width="98" height="6.666"/>
	<g>
		<g>
			<path fill="#FFF200" d="M893.763-84.621c0,0-15.417,0.755-25.557-15.956c-10.137-16.711-35.936,0.642-44.801,7.197
				c-8.859,6.554-39.802,26.97-62.814,18.93c0,0-20.185,27.819,0.309,21.318c0.981,9.185,3.455,17.951,9.299,18.376
				c4.398,1.237,8.793-0.667,12.581-8.189c10.184,11.063,15.575,19.325,30.373-4.32c29.158,17.281,50.973-1.04,51.731-10.779
				c0.111-1.452,0.114-3.146,0.019-5.021C886.639-62.697,905.507-80,893.763-84.621z"/>
			<path fill="#EEDC00" d="M760.896-74.751c0,0-20.437,27.621,0.467,22.067c0,0,2.483,33.535,21.896,10.125
				c0,0-17.851,2.865-15.691-13.075c2.161-15.941,14.275-17.798,14.275-17.798S771.271-70.859,760.896-74.751z"/>
		</g>
		<path fill="#EEDC00" d="M845.512-67.221c0,0,25.093,16.734,25.245-9.3C870.757-76.521,866.182-59.108,845.512-67.221z"/>
		<path fill="#EEDC00" d="M851.488-80.517c0,0,25.092,16.732,25.245-9.3C876.733-89.817,872.156-72.407,851.488-80.517z"/>
		<path fill="#EEDC00" d="M819.129-58.883c0,0,25.093,16.733,25.246-9.299C844.375-68.182,839.798-50.771,819.129-58.883z"/>
		<path fill="#EEDC00" d="M800.508-69.069c0,0,25.092,16.733,25.246-9.299C825.754-78.369,821.177-60.958,800.508-69.069z"/>
		<path fill="#EEDC00" d="M814.454-47.363c0,0,15.702,13.557,18.022-4.199C832.477-51.562,827.869-40.068,814.454-47.363z"/>
		<path fill="#EEDC00" d="M841.642-56.192c0,0,15.7,13.557,18.021-4.198C859.663-60.391,855.058-48.896,841.642-56.192z"/>
		<path fill="#EEDC00" d="M784-43.446c0,0,15.699,13.556,18.021-4.199C802.021-47.645,797.416-36.15,784-43.446z"/>
		<path fill="#EEDC00" d="M793.22-56.424c0,0,20.014,22.563,26.78-2.576C820-59,811.148-43.324,793.22-56.424z"/>
	</g>
</g>
<g>
	<g>
		<path fill="#FFF200" d="M1094.793-148.806c0,0,14.803,4.376,28.604-9.467c13.797-13.844,34.768,9.112,41.832,17.575
			c7.063,8.462,32.307,35.608,56.566,33.232c0,0,13.043,31.799-5.334,20.641c-3.123,8.694-7.598,16.627-13.377,15.661
			c-4.566,0.163-8.385-2.726-10.291-10.93c-12.506,8.344-19.697,15.101-28.492-11.372c-32.416,9.906-49.287-13.05-47.723-22.692
			c0.234-1.438,0.633-3.084,1.17-4.885C1096.537-125.818,1082.291-147.09,1094.793-148.806z"/>
		<path fill="#EEDC00" d="M1221.57-107.833c0,0,13.334,31.667-5.666,21.333c0,0-10.334,32-23.668,4.667c0,0,16.668,7,18.334-9
			s-9.666-20.667-9.666-20.667S1210.57-106.5,1221.57-107.833z"/>
	</g>
	<path fill="#EEDC00" d="M1137.57-120.5c0,0-28.334,10.333-22.334-15C1115.236-135.5,1115.57-117.5,1137.57-120.5z"/>
	<path fill="#EEDC00" d="M1134.902-134.833c0,0-28.334,10.333-22.334-15C1112.568-149.833,1112.902-131.833,1134.902-134.833z"/>
	<path fill="#EEDC00" d="M1161.236-106.167c0,0-28.334,10.333-22.334-15C1138.902-121.167,1139.236-103.167,1161.236-106.167z"/>
	<path fill="#EEDC00" d="M1181.736-111.667c0,0-28.334,10.333-22.334-15C1159.402-126.667,1159.736-108.667,1181.736-111.667z"/>
	<path fill="#EEDC00" d="M1163.059-93.87c0,0-18.459,9.465-16.52-8.336C1146.539-102.206,1148.299-89.949,1163.059-93.87z"/>
	<path fill="#EEDC00" d="M1138.727-108.87c0,0-18.459,9.465-16.521-8.336C1122.205-117.206,1123.967-104.949,1138.727-108.87z"/>
	<path fill="#EEDC00" d="M1191.727-82.87c0,0-18.459,9.465-16.521-8.336C1175.205-91.206,1176.967-78.949,1191.727-82.87z"/>
	<path fill="#EEDC00" d="M1185.832-97.658c0,0-24.775,17.198-25.414-8.828C1160.418-106.486,1165.318-89.163,1185.832-97.658z"/>
</g>
<path fill="#FFF200" d="M632.753-6.084c1.241-4.913,1.914-10.01,1.914-15.245c0-7.4-1.311-14.535-3.735-21.242
	c6.265,0.249,14.318-3.155,14.318-3.155c-9.476,0.838-16.806-4.599-18.413-5.901c-2.624-4.808-5.859-9.313-9.607-13.455
	c4.991-1.561,8.521-3.949,8.521-3.949c-4.976,2.913-14.341-2.533-18.462-5.248c-7.454-5.77-16.132-10.373-25.657-13.486
	c7.693-6.862,9.619-15.985,9.619-15.985c-5.289,5.898-21.213,9.516-29.445,11.043c1.185-3.696,1.945-7.238,1.945-7.238
	c-2.671,3.684-6.838,6.146-10.143,7.64c-0.298-0.003-0.591-0.02-0.89-0.02c-35.399,0-65.553,19.445-77.013,46.677
	c-0.458,0.793-4.836,8.109-11.455,9.908c0,0,3.743,0.744,8.096,0.525c-1.028,4.491-1.578,9.132-1.578,13.885
	c0,4.517,0.508,8.928,1.438,13.21c0.471,4.358,0.796,11.572-1.957,13.044c0,0,3.156-1.065,4.668-3.95
	c10.797,28.279,41.537,48.692,77.8,48.692c36.31,0,67.085-20.467,77.843-48.804c2.09,5.182,5.939,6.916,5.939,6.916
	C633.229,5.833,632.8-2.95,632.753-6.084z"/>
<g>
	<path fill="#F15A29" d="M461.166,172.541c0,0,33,5,76.25,0.25C537.416,172.791,496.916,199.041,461.166,172.541z"/>
	<path fill="#F7941E" d="M460.666,172.541c0,0,38.25-14.5,76.25,0.25C536.916,172.791,500.166,180.041,460.666,172.541z"/>
	<path opacity="0.5" fill="#FFFFFF" d="M515.728,168.832c0,0,8.876,0.125,15.397,3.875l-19.292,1.75
		C511.833,174.457,529.313,171.207,515.728,168.832z"/>
	<ellipse opacity="0.5" fill="#FFFFFF" cx="509.75" cy="174" rx="1.25" ry="0.898"/>
</g>
<g>
	<g>
		<circle cx="512.331" cy="104.829" r="25"/>
		<path fill="#FFFFFF" d="M496.223,95.603c0,0-2.708,7.154-6.557,8.906c0,0,6.415,6.132,5.987,10.075c0,0,0.855-7.885,7.27-10.075
			C502.923,104.509,496.794,100.859,496.223,95.603z"/>
		<path fill="#FFFFFF" d="M501.672,87.103c0,0-1.139,3.008-2.757,3.745c0,0,2.697,2.578,2.518,4.236c0,0,0.359-3.315,3.057-4.236
			C504.49,90.848,501.913,89.313,501.672,87.103z"/>
		<path fill="#FFFFFF" d="M508.234,115.5c0,0-1.783,4.711-4.318,5.865c0,0,4.225,4.039,3.943,6.635c0,0,0.563-5.191,4.789-6.635
			C512.647,121.365,508.61,118.962,508.234,115.5z"/>
		<circle fill="#FFFFFF" cx="517.759" cy="100.712" r="14.942"/>
		<circle fill="#FFFFFF" cx="519.25" cy="119.75" r="2.586"/>
	</g>
	<g>
		<circle cx="592.498" cy="103.995" r="25"/>
		<circle fill="#FFFFFF" cx="586.592" cy="100.212" r="14.942"/>
		<path fill="#FFFFFF" d="M609.725,94.436c0,0-2.641,6.809-6.393,8.477c0,0,6.254,5.836,5.837,9.588c0,0,0.833-7.504,7.087-9.588
			C616.256,102.912,610.28,99.438,609.725,94.436z"/>
		<path fill="#FFFFFF" d="M602.672,82.353c0,0-1.139,3.008-2.756,3.745c0,0,2.697,2.578,2.518,4.236c0,0,0.359-3.315,3.057-4.236
			C605.49,86.098,602.912,84.563,602.672,82.353z"/>
		<path fill="#FFFFFF" d="M594.401,114.334c0,0-1.783,4.711-4.319,5.865c0,0,4.226,4.038,3.943,6.635c0,0,0.563-5.192,4.788-6.635
			C598.813,120.199,594.776,117.795,594.401,114.334z"/>
		<circle fill="#FFFFFF" cx="585" cy="119.25" r="2.585"/>
	</g>
</g>
<g>
	<g>
		<path d="M661.5,108.898c1.066-1.685,2.469-3.034,3.956-4.253c1.501-1.205,3.143-2.221,4.875-3.075
			c3.471-1.682,7.344-2.688,11.322-2.804c3.969-0.131,8.044,0.673,11.622,2.438c3.563,1.78,6.653,4.436,8.475,7.943
			c-3.851-0.815-7.145-1.568-10.385-1.949c-3.219-0.411-6.322-0.52-9.48-0.437c-3.155,0.09-6.363,0.382-9.708,0.799
			C668.813,107.96,665.388,108.486,661.5,108.898z"/>
	</g>
	<g>
		<path d="M741.5,109.898c1.066-1.685,2.469-3.034,3.956-4.253c1.501-1.205,3.143-2.221,4.875-3.075
			c3.471-1.682,7.344-2.688,11.322-2.804c3.969-0.131,8.044,0.673,11.622,2.438c3.563,1.78,6.653,4.436,8.475,7.943
			c-3.851-0.815-7.145-1.568-10.385-1.949c-3.219-0.411-6.322-0.52-9.48-0.437c-3.155,0.09-6.363,0.382-9.708,0.799
			C748.813,108.96,745.388,109.486,741.5,109.898z"/>
	</g>
</g>
<g>
	<g>
		<path d="M711.75,174.189c-0.38,0.042-0.753,0.077-1.132,0.117c0.4-0.072,0.632-0.117,0.632-0.117c-38-14.75-76.25-0.25-76.25-0.25
			c0.223,0.042,0.444,0.078,0.666,0.119C671.375,200.355,711.75,174.189,711.75,174.189z"/>
		<path fill="#F15A29" d="M635.5,173.939c0,0,30.25,10.833,76.25,0.25C711.75,174.189,674,210.334,635.5,173.939z"/>
		<path fill="#F7941E" d="M635,173.939c0,0,32-25.189,76.25,0.25C711.25,174.189,681.584,170.772,635,173.939z"/>
		<path opacity="0.5" fill="#FFFFFF" d="M683.728,165.332c0,0,8.876,0.125,15.397,3.875l-19.292,1.75
			C679.833,170.957,697.313,167.707,683.728,165.332z"/>
		<ellipse opacity="0.5" fill="#FFFFFF" cx="677.75" cy="170.5" rx="1.25" ry="0.898"/>
	</g>
</g>
<g>
	<path fill="#FFFFFF" d="M121.5,28.5c0,0,20-33,55-7c0,0,31-37,68.5,2c0,0,27-4.5,30,21.5c0,0,34.5-2.5,35.5,2c0,0,37,1.5,32.5,7.5
		s-53.5,14-64,10c0,0-56,17-64.5-3c0,0-56,34-85.5,8c0,0-21.5,17.5-46.5,4c0,0-99,1.5-48.5-20c0,0,7.5-19,35-10c0,0,11.5-21,32-13
		C101,30.5,109,19,121.5,28.5z"/>
	<path opacity="0.09" fill="#27AAE1" d="M189.5,26c0,0,32.5-11,44,9c0,0,27.5-1.5,29,14c0,0,6.5-20.5-23.5-19
		C239,30,217.5,1,189.5,26z"/>
	<path opacity="0.09" fill="#27AAE1" d="M69.5,51c0,0-14.5-9-24.5,6.5c0,0-20,7,10,9c0,0-8-5.5,0-7C55,59.5,51.5,51.5,69.5,51z"/>
	<path opacity="0.09" fill="#27AAE1" d="M140.5,61.5c0,0,29,13.5,63.5-4C204,57.5,174,83,140.5,61.5z"/>
</g>
<g>
	<path fill="#FFFFFF" d="M102.718,161.5c0,0,12.679-33,34.868-7c0,0,19.653-37,43.426,2c0,0,17.117-4.5,19.019,21.5
		c0,0,21.872-2.5,22.505,2c0,0,23.457,1.5,20.604,7.5c-2.853,6-33.917,14-40.573,10c0,0-35.501,17-40.89-3c0,0-35.501,34-54.203,8
		c0,0-13.63,17.5-29.479,4c0,0-62.762,1.5-30.747-20c0,0,4.754-19,22.188-10c0,0,7.291-21,20.287-13
		C89.722,163.5,94.793,152,102.718,161.5z"/>
	<path opacity="0.09" fill="#27AAE1" d="M146.5,157.5c0,0,16.5-15.5,26.5,2C173,159.5,164.5,134,146.5,157.5z"/>
	<g>
		<g>
			<path fill="#F1F2F2" d="M228.148,152.639c0.841,0,2.01-1.277,0.703-1.277C228.01,151.361,226.842,152.639,228.148,152.639
				L228.148,152.639z"/>
		</g>
	</g>
	<path opacity="0.09" fill="#27AAE1" d="M80.5,191.5c0,0,19.5,12,27.5-1c0,0,31.5,16,48-3.5c0,0-26,27.5-48,9.5
		C108,196.5,88,212,80.5,191.5z"/>
</g>
</svg>
