<?xml version="1.0" encoding="utf-8"?>
<!-- Generator: Adobe Illustrator 15.1.0, SVG Export Plug-In . SVG Version: 6.00 Build 0)  -->
<!DOCTYPE svg PUBLIC "-//W3C//DTD SVG 1.1//EN" "http://www.w3.org/Graphics/SVG/1.1/DTD/svg11.dtd">
<svg version="1.1" id="Layer_1" xmlns="http://www.w3.org/2000/svg" xmlns:xlink="http://www.w3.org/1999/xlink" x="0px" y="0px"
	 width="204px" height="172px" viewBox="0 0 204 172" enable-background="new 0 0 204 172" xml:space="preserve">
<g>
	
		<rect x="-109.53" y="52.87" transform="matrix(-0.974 -0.2265 0.2265 -0.974 -132.2158 97.2368)" fill="#FFF200" width="98" height="6.666"/>
	<g>
		<g>
			<path fill="#FFF200" d="M-238.028,30.153c0,0,15.424,0.594,25.389-16.223c9.961-16.816,35.94,0.266,44.873,6.727
				c8.929,6.461,40.083,26.552,63.01,18.271c0,0,20.475,27.606-0.085,21.32c-0.886,9.195-3.267,17.986-9.106,18.474
				c-4.385,1.283-8.8-0.575-12.666-8.058c-10.067,11.168-15.372,19.487-30.417-4.001c-28.975,17.585-50.98-0.505-51.841-10.237
				c-0.126-1.451-0.147-3.145-0.071-5.021C-230.674,52.002-249.723,34.896-238.028,30.153z"/>
			<path fill="#EEDC00" d="M-105.065,38.63c0,0,20.725,27.405-0.235,22.071c0,0-2.132,33.56-21.79,10.354
				c0,0,17.88,2.677,15.554-13.239c-2.328-15.917-14.461-17.648-14.461-17.648S-115.397,42.63-105.065,38.63z"/>
		</g>
		<path fill="#EEDC00" d="M-189.597,47.047c0,0-24.916,16.996-25.341-9.035C-214.938,38.012-210.18,55.375-189.597,47.047z"/>
		<path fill="#EEDC00" d="M-195.712,33.814c0,0-24.916,16.994-25.341-9.035C-221.053,24.779-216.294,42.141-195.712,33.814z"/>
		<path fill="#EEDC00" d="M-163.128,55.108c0,0-24.916,16.995-25.342-9.034C-188.471,46.074-183.711,63.436-163.128,55.108z"/>
		<path fill="#EEDC00" d="M-144.614,44.727c0,0-24.916,16.995-25.342-9.035C-169.957,35.692-165.197,53.054-144.614,44.727z"/>
		<path fill="#EEDC00" d="M-158.333,66.578c0,0-15.559,13.721-18.065-4.01C-176.398,62.568-171.671,74.013-158.333,66.578z"/>
		<path fill="#EEDC00" d="M-185.611,58.034c0,0-15.557,13.72-18.064-4.009C-203.675,54.025-198.95,65.471-185.611,58.034z"/>
		<path fill="#EEDC00" d="M-127.84,70.176c0,0-15.556,13.72-18.064-4.01C-145.904,66.166-141.178,77.612-127.84,70.176z"/>
		<path fill="#EEDC00" d="M-137.194,57.295c0,0-19.776,22.771-26.806-2.295C-164,55-154.985,70.583-137.194,57.295z"/>
	</g>
</g>
<g>
	
		<rect x="217.548" y="51.954" transform="matrix(0.9716 -0.2367 0.2367 0.9716 -5.5122 64.6577)" fill="#FFF200" width="98" height="6.666"/>
	<g>
		<g>
			<path fill="#FFF200" d="M443.763,27.379c0,0-15.417,0.755-25.557-15.956c-10.137-16.711-35.936,0.642-44.801,7.197
				c-8.859,6.554-39.802,26.97-62.814,18.93c0,0-20.185,27.819,0.309,21.318c0.981,9.185,3.455,17.951,9.299,18.376
				c4.398,1.237,8.793-0.667,12.581-8.189c10.184,11.063,15.575,19.325,30.373-4.32c29.158,17.281,50.973-1.04,51.731-10.779
				c0.111-1.452,0.114-3.146,0.019-5.021C436.639,49.303,455.507,32,443.763,27.379z"/>
			<path fill="#EEDC00" d="M310.896,37.249c0,0-20.437,27.621,0.467,22.067c0,0,2.483,33.535,21.896,10.125
				c0,0-17.851,2.865-15.691-13.075c2.161-15.941,14.275-17.798,14.275-17.798S321.271,41.141,310.896,37.249z"/>
		</g>
		<path fill="#EEDC00" d="M395.512,44.779c0,0,25.093,16.734,25.245-9.3C420.757,35.479,416.182,52.892,395.512,44.779z"/>
		<path fill="#EEDC00" d="M401.488,31.483c0,0,25.092,16.732,25.245-9.3C426.733,22.183,422.156,39.593,401.488,31.483z"/>
		<path fill="#EEDC00" d="M369.129,53.117c0,0,25.093,16.733,25.246-9.299C394.375,43.818,389.798,61.229,369.129,53.117z"/>
		<path fill="#EEDC00" d="M350.508,42.931c0,0,25.092,16.733,25.246-9.299C375.754,33.631,371.177,51.042,350.508,42.931z"/>
		<path fill="#EEDC00" d="M364.454,64.637c0,0,15.702,13.557,18.022-4.199C382.477,60.438,377.869,71.932,364.454,64.637z"/>
		<path fill="#EEDC00" d="M391.642,55.808c0,0,15.7,13.557,18.021-4.198C409.663,51.609,405.058,63.104,391.642,55.808z"/>
		<path fill="#EEDC00" d="M334,68.554c0,0,15.699,13.556,18.021-4.199C352.021,64.355,347.416,75.85,334,68.554z"/>
		<path fill="#EEDC00" d="M343.22,55.576c0,0,20.014,22.563,26.78-2.576C370,53,361.148,68.676,343.22,55.576z"/>
	</g>
</g>
<g>
	<g>
		<path fill="#FFF200" d="M644.793-36.806c0,0,14.803,4.376,28.604-9.467c13.797-13.844,34.768,9.112,41.832,17.575
			c7.063,8.462,32.307,35.608,56.566,33.232c0,0,13.043,31.799-5.334,20.641c-3.123,8.694-7.598,16.627-13.377,15.661
			c-4.566,0.163-8.385-2.726-10.291-10.93c-12.506,8.344-19.697,15.101-28.492-11.372c-32.416,9.906-49.287-13.05-47.723-22.692
			c0.234-1.438,0.633-3.084,1.17-4.885C646.537-13.818,632.291-35.09,644.793-36.806z"/>
		<path fill="#EEDC00" d="M771.57,4.167c0,0,13.334,31.667-5.666,21.333c0,0-10.334,32-23.668,4.667c0,0,16.668,7,18.334-9
			S750.904,0.5,750.904,0.5S760.57,5.5,771.57,4.167z"/>
	</g>
	<path fill="#EEDC00" d="M687.57-8.5c0,0-28.334,10.333-22.334-15C665.236-23.5,665.57-5.5,687.57-8.5z"/>
	<path fill="#EEDC00" d="M684.902-22.833c0,0-28.334,10.333-22.334-15C662.568-37.833,662.902-19.833,684.902-22.833z"/>
	<path fill="#EEDC00" d="M711.236,5.833c0,0-28.334,10.333-22.334-15C688.902-9.167,689.236,8.833,711.236,5.833z"/>
	<path fill="#EEDC00" d="M731.736,0.333c0,0-28.334,10.333-22.334-15C709.402-14.667,709.736,3.333,731.736,0.333z"/>
	<path fill="#EEDC00" d="M713.059,18.13c0,0-18.459,9.465-16.52-8.336C696.539,9.794,698.299,22.051,713.059,18.13z"/>
	<path fill="#EEDC00" d="M688.727,3.13c0,0-18.459,9.465-16.521-8.336C672.205-5.206,673.967,7.051,688.727,3.13z"/>
	<path fill="#EEDC00" d="M741.727,29.13c0,0-18.459,9.465-16.521-8.336C725.205,20.794,726.967,33.051,741.727,29.13z"/>
	<path fill="#EEDC00" d="M735.832,14.342c0,0-24.775,17.198-25.414-8.828C710.418,5.514,715.318,22.837,735.832,14.342z"/>
</g>
<path fill="#FFF200" d="M182.753,105.916c1.241-4.913,1.914-10.01,1.914-15.245c0-7.4-1.311-14.535-3.735-21.242
	c6.265,0.249,14.318-3.155,14.318-3.155c-9.476,0.838-16.806-4.599-18.413-5.901c-2.624-4.808-5.859-9.313-9.607-13.455
	c4.991-1.561,8.521-3.949,8.521-3.949c-4.976,2.913-14.341-2.533-18.462-5.248c-7.454-5.77-16.132-10.373-25.657-13.486
	c7.693-6.862,9.619-15.985,9.619-15.985c-5.289,5.898-21.213,9.516-29.445,11.043c1.185-3.696,1.945-7.238,1.945-7.238
	c-2.671,3.684-6.838,6.146-10.143,7.64c-0.298-0.003-0.591-0.02-0.89-0.02c-35.399,0-65.553,19.445-77.013,46.677
	c-0.458,0.793-4.836,8.109-11.455,9.908c0,0,3.743,0.744,8.096,0.525c-1.028,4.491-1.578,9.132-1.578,13.885
	c0,4.517,0.508,8.928,1.438,13.21c0.471,4.358,0.796,11.572-1.957,13.044c0,0,3.156-1.065,4.668-3.95
	c10.797,28.279,41.537,48.692,77.8,48.692c36.31,0,67.085-20.467,77.843-48.804c2.09,5.182,5.939,6.916,5.939,6.916
	C183.229,117.833,182.8,109.05,182.753,105.916z"/>
<g>
	<path fill="#F15A29" d="M11.166,284.541c0,0,33,5,76.25,0.25C87.416,284.791,46.916,311.041,11.166,284.541z"/>
	<path fill="#F7941E" d="M10.666,284.541c0,0,38.25-14.5,76.25,0.25C86.916,284.791,50.166,292.041,10.666,284.541z"/>
	<path opacity="0.5" fill="#FFFFFF" d="M65.728,280.832c0,0,8.876,0.125,15.397,3.875l-19.292,1.75
		C61.833,286.457,79.313,283.207,65.728,280.832z"/>
	<ellipse opacity="0.5" fill="#FFFFFF" cx="59.75" cy="286" rx="1.25" ry="0.898"/>
</g>
<g>
	<g>
		<circle cx="62.331" cy="216.829" r="25"/>
		<path fill="#FFFFFF" d="M46.223,207.603c0,0-2.708,7.154-6.557,8.906c0,0,6.415,6.132,5.987,10.075c0,0,0.855-7.885,7.27-10.075
			C52.923,216.509,46.794,212.859,46.223,207.603z"/>
		<path fill="#FFFFFF" d="M51.672,199.103c0,0-1.139,3.008-2.757,3.745c0,0,2.697,2.578,2.518,4.236c0,0,0.359-3.315,3.057-4.236
			C54.49,202.848,51.913,201.313,51.672,199.103z"/>
		<path fill="#FFFFFF" d="M58.234,227.5c0,0-1.783,4.711-4.318,5.865c0,0,4.225,4.039,3.943,6.635c0,0,0.563-5.191,4.789-6.635
			C62.647,233.365,58.61,230.962,58.234,227.5z"/>
		<circle fill="#FFFFFF" cx="67.759" cy="212.712" r="14.942"/>
		<circle fill="#FFFFFF" cx="69.25" cy="231.75" r="2.586"/>
	</g>
	<g>
		<circle cx="142.498" cy="215.995" r="25"/>
		<circle fill="#FFFFFF" cx="136.592" cy="212.212" r="14.942"/>
		<path fill="#FFFFFF" d="M159.725,206.436c0,0-2.641,6.809-6.393,8.477c0,0,6.254,5.836,5.837,9.588c0,0,0.833-7.504,7.087-9.588
			C166.256,214.912,160.28,211.438,159.725,206.436z"/>
		<path fill="#FFFFFF" d="M152.672,194.353c0,0-1.139,3.008-2.756,3.745c0,0,2.697,2.578,2.518,4.236c0,0,0.359-3.315,3.057-4.236
			C155.49,198.098,152.912,196.563,152.672,194.353z"/>
		<path fill="#FFFFFF" d="M144.401,226.334c0,0-1.783,4.711-4.319,5.865c0,0,4.226,4.038,3.943,6.635c0,0,0.563-5.192,4.788-6.635
			C148.813,232.199,144.776,229.795,144.401,226.334z"/>
		<circle fill="#FFFFFF" cx="135" cy="231.25" r="2.585"/>
	</g>
</g>
<g>
	<g>
		<path d="M211.5,220.898c2.943-2.037,6.235-3.552,9.642-4.698c3.411-1.146,6.996-1.818,10.612-1.935
			c3.613-0.099,7.266,0.381,10.684,1.57c1.706,0.594,3.357,1.334,4.924,2.217c1.551,0.911,3.036,1.927,4.389,3.096
			c-2.96-1.994-6.164-3.589-9.547-4.579c-3.38-0.987-6.906-1.421-10.42-1.305c-3.518,0.089-7.013,0.715-10.416,1.668
			c-1.703,0.476-3.381,1.058-5.024,1.726C214.688,219.303,213.072,220.053,211.5,220.898z"/>
	</g>
	<g>
		<path d="M291.5,221.898c2.942-2.037,6.235-3.552,9.642-4.698c3.41-1.146,6.996-1.818,10.613-1.935
			c3.613-0.099,7.266,0.381,10.683,1.57c1.706,0.594,3.357,1.334,4.924,2.217c1.551,0.911,3.036,1.927,4.389,3.096
			c-2.96-1.994-6.164-3.589-9.546-4.579c-3.381-0.987-6.906-1.421-10.421-1.305c-3.518,0.089-7.013,0.715-10.416,1.668
			c-1.704,0.476-3.381,1.058-5.024,1.726C294.688,220.303,293.072,221.053,291.5,221.898z"/>
	</g>
</g>
<g>
	<g>
		<path d="M261.75,286.189c-0.38,0.042-0.753,0.077-1.132,0.117c0.4-0.072,0.632-0.117,0.632-0.117c-38-14.75-76.25-0.25-76.25-0.25
			c0.223,0.042,0.444,0.078,0.666,0.119C221.375,312.355,261.75,286.189,261.75,286.189z"/>
		<path fill="#F15A29" d="M185.5,285.939c0,0,30.25,10.833,76.25,0.25C261.75,286.189,224,322.334,185.5,285.939z"/>
		<path fill="#F7941E" d="M185,285.939c0,0,32-25.189,76.25,0.25C261.25,286.189,231.584,282.772,185,285.939z"/>
		<path opacity="0.5" fill="#FFFFFF" d="M233.728,277.332c0,0,8.876,0.125,15.397,3.875l-19.292,1.75
			C229.833,282.957,247.313,279.707,233.728,277.332z"/>
		<ellipse opacity="0.5" fill="#FFFFFF" cx="227.75" cy="282.5" rx="1.25" ry="0.898"/>
	</g>
</g>
</svg>
