<?xml version="1.0" encoding="utf-8"?>
<!-- Generator: Adobe Illustrator 15.1.0, SVG Export Plug-In . SVG Version: 6.00 Build 0)  -->
<!DOCTYPE svg PUBLIC "-//W3C//DTD SVG 1.1//EN" "http://www.w3.org/Graphics/SVG/1.1/DTD/svg11.dtd">
<svg version="1.1" id="Layer_1" xmlns="http://www.w3.org/2000/svg" xmlns:xlink="http://www.w3.org/1999/xlink" x="0px" y="0px"
	 width="130px" height="20px" viewBox="0 0 130 20" enable-background="new 0 0 130 20" xml:space="preserve">
<g>
	
		<rect x="-316.03" y="-156.13" transform="matrix(-0.974 -0.2265 0.2265 -0.974 -492.5148 -362.1012)" fill="#FFF200" width="98" height="6.666"/>
	<g>
		<g>
			<path fill="#FFF200" d="M-444.528-178.847c0,0,15.424,0.594,25.389-16.223c9.961-16.816,35.94,0.266,44.873,6.727
				c8.929,6.461,40.083,26.552,63.01,18.271c0,0,20.475,27.606-0.085,21.32c-0.886,9.195-3.267,17.986-9.106,18.474
				c-4.385,1.283-8.8-0.575-12.666-8.058c-10.067,11.168-15.372,19.487-30.417-4.001c-28.975,17.585-50.98-0.505-51.841-10.237
				c-0.126-1.451-0.147-3.145-0.071-5.021C-437.174-156.998-456.223-174.104-444.528-178.847z"/>
			<path fill="#EEDC00" d="M-311.565-170.37c0,0,20.725,27.405-0.235,22.071c0,0-2.132,33.56-21.79,10.354
				c0,0,17.88,2.677,15.554-13.239c-2.328-15.917-14.461-17.648-14.461-17.648S-321.897-166.37-311.565-170.37z"/>
		</g>
		<path fill="#EEDC00" d="M-396.097-161.953c0,0-24.916,16.996-25.341-9.035C-421.438-170.988-416.68-153.625-396.097-161.953z"/>
		<path fill="#EEDC00" d="M-402.212-175.186c0,0-24.916,16.994-25.341-9.035C-427.553-184.221-422.794-166.859-402.212-175.186z"/>
		<path fill="#EEDC00" d="M-369.628-153.892c0,0-24.916,16.995-25.342-9.034C-394.971-162.926-390.211-145.564-369.628-153.892z"/>
		<path fill="#EEDC00" d="M-351.114-164.273c0,0-24.916,16.995-25.342-9.035C-376.457-173.308-371.697-155.946-351.114-164.273z"/>
		<path fill="#EEDC00" d="M-364.833-142.422c0,0-15.559,13.721-18.065-4.01C-382.898-146.432-378.171-134.987-364.833-142.422z"/>
		<path fill="#EEDC00" d="M-392.111-150.966c0,0-15.557,13.72-18.064-4.009C-410.175-154.975-405.45-143.529-392.111-150.966z"/>
		<path fill="#EEDC00" d="M-334.34-138.824c0,0-15.556,13.72-18.064-4.01C-352.404-142.834-347.678-131.388-334.34-138.824z"/>
		<path fill="#EEDC00" d="M-343.694-151.705c0,0-19.776,22.771-26.806-2.295C-370.5-154-361.485-138.417-343.694-151.705z"/>
	</g>
</g>
<g>
	
		<rect x="11.048" y="-157.046" transform="matrix(0.9716 -0.2367 0.2367 0.9716 38.087 9.8448)" fill="#FFF200" width="98" height="6.666"/>
	<g>
		<g>
			<path fill="#FFF200" d="M237.263-181.621c0,0-15.417,0.755-25.557-15.956c-10.137-16.711-35.936,0.642-44.801,7.197
				c-8.859,6.554-39.802,26.97-62.814,18.93c0,0-20.185,27.819,0.309,21.318c0.981,9.185,3.455,17.951,9.299,18.376
				c4.398,1.237,8.793-0.667,12.581-8.189c10.184,11.063,15.575,19.325,30.373-4.32c29.158,17.281,50.973-1.04,51.731-10.779
				c0.111-1.452,0.114-3.146,0.019-5.021C230.139-159.697,249.007-177,237.263-181.621z"/>
			<path fill="#EEDC00" d="M104.396-171.751c0,0-20.437,27.621,0.467,22.067c0,0,2.483,33.535,21.896,10.125
				c0,0-17.851,2.865-15.691-13.075c2.161-15.941,14.275-17.798,14.275-17.798S114.771-167.859,104.396-171.751z"/>
		</g>
		<path fill="#EEDC00" d="M189.012-164.221c0,0,25.093,16.734,25.245-9.3C214.257-173.521,209.682-156.108,189.012-164.221z"/>
		<path fill="#EEDC00" d="M194.988-177.517c0,0,25.092,16.732,25.245-9.3C220.233-186.817,215.656-169.407,194.988-177.517z"/>
		<path fill="#EEDC00" d="M162.629-155.883c0,0,25.093,16.733,25.246-9.299C187.875-165.182,183.298-147.771,162.629-155.883z"/>
		<path fill="#EEDC00" d="M144.008-166.069c0,0,25.092,16.733,25.246-9.299C169.254-175.369,164.677-157.958,144.008-166.069z"/>
		<path fill="#EEDC00" d="M157.954-144.363c0,0,15.702,13.557,18.022-4.199C175.977-148.562,171.369-137.068,157.954-144.363z"/>
		<path fill="#EEDC00" d="M185.142-153.192c0,0,15.7,13.557,18.021-4.198C203.163-157.391,198.558-145.896,185.142-153.192z"/>
		<path fill="#EEDC00" d="M127.5-140.446c0,0,15.699,13.556,18.021-4.199C145.521-144.645,140.916-133.15,127.5-140.446z"/>
		<path fill="#EEDC00" d="M136.72-153.424c0,0,20.014,22.563,26.78-2.576C163.5-156,154.648-140.324,136.72-153.424z"/>
	</g>
</g>
<g>
	<g>
		<path fill="#FFF200" d="M438.293-245.806c0,0,14.803,4.376,28.604-9.467c13.797-13.844,34.768,9.112,41.832,17.575
			c7.063,8.462,32.307,35.608,56.566,33.232c0,0,13.043,31.799-5.334,20.641c-3.123,8.694-7.598,16.627-13.377,15.661
			c-4.566,0.163-8.385-2.726-10.291-10.93c-12.506,8.344-19.697,15.101-28.492-11.372c-32.416,9.906-49.287-13.05-47.723-22.692
			c0.234-1.438,0.633-3.084,1.17-4.885C440.037-222.818,425.791-244.09,438.293-245.806z"/>
		<path fill="#EEDC00" d="M565.07-204.833c0,0,13.334,31.667-5.666,21.333c0,0-10.334,32-23.668,4.667c0,0,16.668,7,18.334-9
			s-9.666-20.667-9.666-20.667S554.07-203.5,565.07-204.833z"/>
	</g>
	<path fill="#EEDC00" d="M481.07-217.5c0,0-28.334,10.333-22.334-15C458.736-232.5,459.07-214.5,481.07-217.5z"/>
	<path fill="#EEDC00" d="M478.402-231.833c0,0-28.334,10.333-22.334-15C456.068-246.833,456.402-228.833,478.402-231.833z"/>
	<path fill="#EEDC00" d="M504.736-203.167c0,0-28.334,10.333-22.334-15C482.402-218.167,482.736-200.167,504.736-203.167z"/>
	<path fill="#EEDC00" d="M525.236-208.667c0,0-28.334,10.333-22.334-15C502.902-223.667,503.236-205.667,525.236-208.667z"/>
	<path fill="#EEDC00" d="M506.559-190.87c0,0-18.459,9.465-16.52-8.336C490.039-199.206,491.799-186.949,506.559-190.87z"/>
	<path fill="#EEDC00" d="M482.227-205.87c0,0-18.459,9.465-16.521-8.336C465.705-214.206,467.467-201.949,482.227-205.87z"/>
	<path fill="#EEDC00" d="M535.227-179.87c0,0-18.459,9.465-16.521-8.336C518.705-188.206,520.467-175.949,535.227-179.87z"/>
	<path fill="#EEDC00" d="M529.332-194.658c0,0-24.775,17.198-25.414-8.828C503.918-203.486,508.818-186.163,529.332-194.658z"/>
</g>
<path fill="#FFF200" d="M-23.747-103.084c1.241-4.913,1.914-10.01,1.914-15.245c0-7.4-1.311-14.535-3.735-21.242
	c6.265,0.249,14.318-3.155,14.318-3.155c-9.476,0.838-16.806-4.599-18.413-5.901c-2.624-4.808-5.859-9.313-9.607-13.455
	c4.991-1.561,8.521-3.949,8.521-3.949c-4.976,2.913-14.341-2.533-18.462-5.248c-7.454-5.77-16.132-10.373-25.657-13.486
	c7.693-6.862,9.619-15.985,9.619-15.985c-5.289,5.898-21.213,9.516-29.445,11.043c1.185-3.696,1.945-7.238,1.945-7.238
	c-2.671,3.684-6.838,6.146-10.143,7.64c-0.298-0.003-0.591-0.02-0.89-0.02c-35.399,0-65.553,19.445-77.013,46.677
	c-0.458,0.793-4.836,8.109-11.455,9.908c0,0,3.743,0.744,8.096,0.525c-1.028,4.491-1.578,9.132-1.578,13.885
	c0,4.517,0.508,8.928,1.438,13.21c0.471,4.358,0.796,11.572-1.957,13.044c0,0,3.156-1.065,4.668-3.95
	c10.797,28.279,41.537,48.692,77.8,48.692c36.31,0,67.085-20.467,77.843-48.804C-23.85-90.955-20-89.222-20-89.222
	C-23.271-91.167-23.7-99.95-23.747-103.084z"/>
<g>
	<path fill="#F15A29" d="M-195.334,75.541c0,0,33,5,76.25,0.25C-119.084,75.791-159.584,102.041-195.334,75.541z"/>
	<path fill="#F7941E" d="M-195.834,75.541c0,0,38.25-14.5,76.25,0.25C-119.584,75.791-156.334,83.041-195.834,75.541z"/>
	<path opacity="0.5" fill="#FFFFFF" d="M-140.772,71.832c0,0,8.876,0.125,15.397,3.875l-19.292,1.75
		C-144.667,77.457-127.188,74.207-140.772,71.832z"/>
	<ellipse opacity="0.5" fill="#FFFFFF" cx="-146.75" cy="77" rx="1.25" ry="0.898"/>
</g>
<g>
	<g>
		<circle cx="-144.169" cy="7.829" r="25"/>
		<path fill="#FFFFFF" d="M-160.277-1.397c0,0-2.708,7.154-6.557,8.906c0,0,6.415,6.132,5.987,10.075c0,0,0.855-7.885,7.27-10.075
			C-153.577,7.509-159.706,3.859-160.277-1.397z"/>
		<path fill="#FFFFFF" d="M-154.828-9.897c0,0-1.139,3.008-2.757,3.745c0,0,2.697,2.578,2.518,4.236c0,0,0.359-3.315,3.057-4.236
			C-152.01-6.152-154.587-7.687-154.828-9.897z"/>
		<path fill="#FFFFFF" d="M-148.266,18.5c0,0-1.783,4.711-4.318,5.865c0,0,4.225,4.039,3.943,6.635c0,0,0.563-5.191,4.789-6.635
			C-143.853,24.365-147.89,21.962-148.266,18.5z"/>
		<circle fill="#FFFFFF" cx="-138.741" cy="3.712" r="14.942"/>
		<circle fill="#FFFFFF" cx="-137.25" cy="22.75" r="2.586"/>
	</g>
	<g>
		<circle cx="-64.002" cy="6.995" r="25"/>
		<circle fill="#FFFFFF" cx="-69.908" cy="3.212" r="14.942"/>
		<path fill="#FFFFFF" d="M-46.775-2.564c0,0-2.641,6.809-6.393,8.477c0,0,6.254,5.836,5.837,9.588c0,0,0.833-7.504,7.087-9.588
			C-40.244,5.912-46.22,2.438-46.775-2.564z"/>
		<path fill="#FFFFFF" d="M-53.828-14.647c0,0-1.139,3.008-2.756,3.745c0,0,2.697,2.578,2.518,4.236c0,0,0.359-3.315,3.057-4.236
			C-51.01-10.902-53.588-12.437-53.828-14.647z"/>
		<path fill="#FFFFFF" d="M-62.099,17.334c0,0-1.783,4.711-4.319,5.865c0,0,4.226,4.038,3.943,6.635c0,0,0.563-5.192,4.788-6.635
			C-57.687,23.199-61.724,20.795-62.099,17.334z"/>
		<circle fill="#FFFFFF" cx="-71.5" cy="22.25" r="2.585"/>
	</g>
</g>
<g>
	<g>
		<path d="M5,11.898c1.066-1.685,2.469-3.034,3.956-4.253c1.501-1.205,3.143-2.221,4.875-3.075
			c3.471-1.682,7.344-2.688,11.322-2.804c3.969-0.131,8.044,0.673,11.622,2.438c3.563,1.78,6.653,4.436,8.475,7.943
			c-3.851-0.815-7.145-1.568-10.385-1.949c-3.219-0.411-6.322-0.52-9.48-0.437c-3.155,0.09-6.363,0.382-9.708,0.799
			C12.313,10.96,8.888,11.486,5,11.898z"/>
	</g>
	<g>
		<path d="M85,12.898c1.066-1.685,2.469-3.034,3.956-4.253c1.501-1.205,3.143-2.221,4.875-3.075
			c3.471-1.682,7.344-2.688,11.322-2.804c3.969-0.131,8.044,0.673,11.622,2.438c3.563,1.78,6.653,4.436,8.475,7.943
			c-3.851-0.815-7.145-1.568-10.385-1.949c-3.219-0.411-6.322-0.52-9.48-0.437c-3.155,0.09-6.363,0.382-9.708,0.799
			C92.313,11.96,88.888,12.486,85,12.898z"/>
	</g>
</g>
<g>
	<g>
		<path d="M55.25,77.189c-0.38,0.042-0.753,0.077-1.132,0.117c0.4-0.072,0.632-0.117,0.632-0.117c-38-14.75-76.25-0.25-76.25-0.25
			c0.223,0.042,0.444,0.078,0.666,0.119C14.875,103.355,55.25,77.189,55.25,77.189z"/>
		<path fill="#F15A29" d="M-21,76.939c0,0,30.25,10.833,76.25,0.25C55.25,77.189,17.5,113.334-21,76.939z"/>
		<path fill="#F7941E" d="M-21.5,76.939c0,0,32-25.189,76.25,0.25C54.75,77.189,25.084,73.772-21.5,76.939z"/>
		<path opacity="0.5" fill="#FFFFFF" d="M27.228,68.332c0,0,8.876,0.125,15.397,3.875l-19.292,1.75
			C23.333,73.957,40.813,70.707,27.228,68.332z"/>
		<ellipse opacity="0.5" fill="#FFFFFF" cx="21.25" cy="73.5" rx="1.25" ry="0.898"/>
	</g>
</g>
</svg>
