<?xml version="1.0" encoding="utf-8"?>
<!-- Generator: Adobe Illustrator 15.1.0, SVG Export Plug-In . SVG Version: 6.00 Build 0)  -->
<!DOCTYPE svg PUBLIC "-//W3C//DTD SVG 1.1//EN" "http://www.w3.org/Graphics/SVG/1.1/DTD/svg11.dtd">
<svg version="1.1" id="Layer_1" xmlns="http://www.w3.org/2000/svg" xmlns:xlink="http://www.w3.org/1999/xlink" x="0px" y="0px"
	 width="233.952px" height="88px" viewBox="0 0 233.952 88" enable-background="new 0 0 233.952 88" xml:space="preserve">
<g>
	
		<rect x="136.47" y="53.87" transform="matrix(-0.974 -0.2265 0.2265 -0.974 353.1654 154.9258)" fill="#FFF200" width="98" height="6.666"/>
	<g>
		<g>
			<path fill="#FFF200" d="M7.972,31.153c0,0,15.424,0.594,25.389-16.223c9.961-16.816,35.94,0.266,44.873,6.727
				c8.929,6.461,40.083,26.552,63.01,18.271c0,0,20.475,27.606-0.085,21.32c-0.886,9.195-3.267,17.986-9.106,18.474
				c-4.385,1.283-8.8-0.575-12.666-8.058c-10.067,11.168-15.372,19.487-30.417-4.001c-28.975,17.585-50.98-0.505-51.841-10.237
				c-0.126-1.451-0.147-3.145-0.071-5.021C15.326,53.002-3.723,35.896,7.972,31.153z"/>
			<path fill="#EEDC00" d="M140.935,39.63c0,0,20.725,27.405-0.235,22.071c0,0-2.132,33.56-21.79,10.354
				c0,0,17.88,2.677,15.554-13.239c-2.328-15.917-14.461-17.648-14.461-17.648S130.603,43.63,140.935,39.63z"/>
		</g>
		<path fill="#EEDC00" d="M56.403,48.047c0,0-24.916,16.996-25.341-9.035C31.062,39.012,35.82,56.375,56.403,48.047z"/>
		<path fill="#EEDC00" d="M50.288,34.814c0,0-24.916,16.994-25.341-9.035C24.947,25.779,29.706,43.141,50.288,34.814z"/>
		<path fill="#EEDC00" d="M82.872,56.108c0,0-24.916,16.995-25.342-9.034C57.529,47.074,62.289,64.436,82.872,56.108z"/>
		<path fill="#EEDC00" d="M101.386,45.727c0,0-24.916,16.995-25.342-9.035C76.043,36.692,80.803,54.054,101.386,45.727z"/>
		<path fill="#EEDC00" d="M87.667,67.578c0,0-15.559,13.721-18.065-4.01C69.602,63.568,74.329,75.013,87.667,67.578z"/>
		<path fill="#EEDC00" d="M60.389,59.034c0,0-15.557,13.72-18.064-4.009C42.325,55.025,47.05,66.471,60.389,59.034z"/>
		<path fill="#EEDC00" d="M118.16,71.176c0,0-15.556,13.72-18.064-4.01C100.096,67.166,104.822,78.612,118.16,71.176z"/>
		<path fill="#EEDC00" d="M108.806,58.295c0,0-19.776,22.771-26.806-2.295C82,56,91.015,71.583,108.806,58.295z"/>
	</g>
</g>
<g>
	
		<rect x="463.548" y="52.954" transform="matrix(0.9716 -0.2367 0.2367 0.9716 1.2406 122.9097)" fill="#FFF200" width="98" height="6.666"/>
	<g>
		<g>
			<path fill="#FFF200" d="M689.763,28.379c0,0-15.417,0.755-25.557-15.956c-10.137-16.711-35.936,0.642-44.801,7.197
				c-8.859,6.554-39.802,26.97-62.814,18.93c0,0-20.185,27.819,0.309,21.318c0.981,9.185,3.455,17.951,9.299,18.376
				c4.398,1.237,8.793-0.667,12.581-8.189c10.184,11.063,15.575,19.325,30.373-4.32c29.158,17.281,50.973-1.04,51.731-10.779
				c0.111-1.452,0.114-3.146,0.019-5.021C682.639,50.303,701.507,33,689.763,28.379z"/>
			<path fill="#EEDC00" d="M556.896,38.249c0,0-20.437,27.621,0.467,22.067c0,0,2.483,33.535,21.896,10.125
				c0,0-17.851,2.865-15.691-13.075c2.161-15.941,14.275-17.798,14.275-17.798S567.271,42.141,556.896,38.249z"/>
		</g>
		<path fill="#EEDC00" d="M641.512,45.779c0,0,25.093,16.734,25.245-9.3C666.757,36.479,662.182,53.892,641.512,45.779z"/>
		<path fill="#EEDC00" d="M647.488,32.483c0,0,25.092,16.732,25.245-9.3C672.733,23.183,668.156,40.593,647.488,32.483z"/>
		<path fill="#EEDC00" d="M615.129,54.117c0,0,25.093,16.733,25.246-9.299C640.375,44.818,635.798,62.229,615.129,54.117z"/>
		<path fill="#EEDC00" d="M596.508,43.931c0,0,25.092,16.733,25.246-9.299C621.754,34.631,617.177,52.042,596.508,43.931z"/>
		<path fill="#EEDC00" d="M610.454,65.637c0,0,15.702,13.557,18.022-4.199C628.477,61.438,623.869,72.932,610.454,65.637z"/>
		<path fill="#EEDC00" d="M637.642,56.808c0,0,15.7,13.557,18.021-4.198C655.663,52.609,651.058,64.104,637.642,56.808z"/>
		<path fill="#EEDC00" d="M580,69.554c0,0,15.699,13.556,18.021-4.199C598.021,65.355,593.416,76.85,580,69.554z"/>
		<path fill="#EEDC00" d="M589.22,56.576c0,0,20.014,22.563,26.78-2.576C616,54,607.148,69.676,589.22,56.576z"/>
	</g>
</g>
<g>
	<g>
		<path fill="#FFF200" d="M890.793-35.806c0,0,14.803,4.376,28.604-9.467c13.797-13.844,34.768,9.112,41.832,17.575
			c7.063,8.462,32.307,35.608,56.566,33.232c0,0,13.043,31.799-5.334,20.641c-3.123,8.694-7.598,16.627-13.377,15.661
			c-4.566,0.163-8.385-2.726-10.291-10.93c-12.506,8.344-19.697,15.101-28.492-11.372c-32.416,9.906-49.287-13.05-47.723-22.692
			c0.234-1.438,0.633-3.084,1.17-4.885C892.537-12.818,878.291-34.09,890.793-35.806z"/>
		<path fill="#EEDC00" d="M1017.57,5.167c0,0,13.334,31.667-5.666,21.333c0,0-10.334,32-23.668,4.667c0,0,16.668,7,18.334-9
			S996.904,1.5,996.904,1.5S1006.57,6.5,1017.57,5.167z"/>
	</g>
	<path fill="#EEDC00" d="M933.57-7.5c0,0-28.334,10.333-22.334-15C911.236-22.5,911.57-4.5,933.57-7.5z"/>
	<path fill="#EEDC00" d="M930.902-21.833c0,0-28.334,10.333-22.334-15C908.568-36.833,908.902-18.833,930.902-21.833z"/>
	<path fill="#EEDC00" d="M957.236,6.833c0,0-28.334,10.333-22.334-15C934.902-8.167,935.236,9.833,957.236,6.833z"/>
	<path fill="#EEDC00" d="M977.736,1.333c0,0-28.334,10.333-22.334-15C955.402-13.667,955.736,4.333,977.736,1.333z"/>
	<path fill="#EEDC00" d="M959.059,19.13c0,0-18.459,9.465-16.52-8.336C942.539,10.794,944.299,23.051,959.059,19.13z"/>
	<path fill="#EEDC00" d="M934.727,4.13c0,0-18.459,9.465-16.521-8.336C918.205-4.206,919.967,8.051,934.727,4.13z"/>
	<path fill="#EEDC00" d="M987.727,30.13c0,0-18.459,9.465-16.521-8.336C971.205,21.794,972.967,34.051,987.727,30.13z"/>
	<path fill="#EEDC00" d="M981.832,15.342c0,0-24.775,17.198-25.414-8.828C956.418,6.514,961.318,23.837,981.832,15.342z"/>
</g>
<path fill="#FFF200" d="M428.753,106.916c1.241-4.913,1.914-10.01,1.914-15.245c0-7.4-1.311-14.535-3.735-21.242
	c6.265,0.249,14.318-3.155,14.318-3.155c-9.476,0.838-16.806-4.599-18.413-5.901c-2.624-4.808-5.859-9.313-9.607-13.455
	c4.991-1.561,8.521-3.949,8.521-3.949c-4.976,2.913-14.341-2.533-18.462-5.248c-7.454-5.77-16.132-10.373-25.657-13.486
	c7.693-6.862,9.619-15.985,9.619-15.985c-5.289,5.898-21.213,9.516-29.445,11.043c1.185-3.696,1.945-7.238,1.945-7.238
	c-2.671,3.684-6.838,6.146-10.143,7.64c-0.298-0.003-0.591-0.02-0.89-0.02c-35.399,0-65.553,19.445-77.013,46.677
	c-0.458,0.793-4.836,8.109-11.455,9.908c0,0,3.743,0.744,8.096,0.525c-1.028,4.491-1.578,9.132-1.578,13.885
	c0,4.517,0.508,8.928,1.438,13.21c0.471,4.358,0.796,11.572-1.957,13.044c0,0,3.156-1.065,4.668-3.95
	c10.797,28.279,41.537,48.692,77.8,48.692c36.31,0,67.085-20.467,77.843-48.804c2.09,5.182,5.939,6.916,5.939,6.916
	C429.229,118.833,428.8,110.05,428.753,106.916z"/>
<g>
	<path fill="#F15A29" d="M257.166,285.541c0,0,33,5,76.25,0.25C333.416,285.791,292.916,312.041,257.166,285.541z"/>
	<path fill="#F7941E" d="M256.666,285.541c0,0,38.25-14.5,76.25,0.25C332.916,285.791,296.166,293.041,256.666,285.541z"/>
	<path opacity="0.5" fill="#FFFFFF" d="M311.728,281.832c0,0,8.876,0.125,15.397,3.875l-19.292,1.75
		C307.833,287.457,325.313,284.207,311.728,281.832z"/>
	<ellipse opacity="0.5" fill="#FFFFFF" cx="305.75" cy="287" rx="1.25" ry="0.898"/>
</g>
<g>
	<g>
		<circle cx="308.331" cy="217.829" r="25"/>
		<path fill="#FFFFFF" d="M292.223,208.603c0,0-2.708,7.154-6.557,8.906c0,0,6.415,6.132,5.987,10.075c0,0,0.855-7.885,7.27-10.075
			C298.923,217.509,292.794,213.859,292.223,208.603z"/>
		<path fill="#FFFFFF" d="M297.672,200.103c0,0-1.139,3.008-2.757,3.745c0,0,2.697,2.578,2.518,4.236c0,0,0.359-3.315,3.057-4.236
			C300.49,203.848,297.913,202.313,297.672,200.103z"/>
		<path fill="#FFFFFF" d="M304.234,228.5c0,0-1.783,4.711-4.318,5.865c0,0,4.225,4.039,3.943,6.635c0,0,0.563-5.191,4.789-6.635
			C308.647,234.365,304.61,231.962,304.234,228.5z"/>
		<circle fill="#FFFFFF" cx="313.759" cy="213.712" r="14.942"/>
		<circle fill="#FFFFFF" cx="315.25" cy="232.75" r="2.586"/>
	</g>
	<g>
		<circle cx="388.498" cy="216.995" r="25"/>
		<circle fill="#FFFFFF" cx="382.592" cy="213.212" r="14.942"/>
		<path fill="#FFFFFF" d="M405.725,207.436c0,0-2.641,6.809-6.393,8.477c0,0,6.254,5.836,5.837,9.588c0,0,0.833-7.504,7.087-9.588
			C412.256,215.912,406.28,212.438,405.725,207.436z"/>
		<path fill="#FFFFFF" d="M398.672,195.353c0,0-1.139,3.008-2.756,3.745c0,0,2.697,2.578,2.518,4.236c0,0,0.359-3.315,3.057-4.236
			C401.49,199.098,398.912,197.563,398.672,195.353z"/>
		<path fill="#FFFFFF" d="M390.401,227.334c0,0-1.783,4.711-4.319,5.865c0,0,4.226,4.038,3.943,6.635c0,0,0.563-5.192,4.788-6.635
			C394.813,233.199,390.776,230.795,390.401,227.334z"/>
		<circle fill="#FFFFFF" cx="381" cy="232.25" r="2.585"/>
	</g>
</g>
<g>
	<g>
		<path d="M457.5,221.898c2.943-2.037,6.235-3.552,9.642-4.698c3.411-1.146,6.996-1.818,10.612-1.935
			c3.613-0.099,7.266,0.381,10.684,1.57c1.706,0.594,3.357,1.334,4.924,2.217c1.551,0.911,3.036,1.927,4.389,3.096
			c-2.96-1.994-6.164-3.589-9.547-4.579c-3.38-0.987-6.906-1.421-10.42-1.305c-3.518,0.089-7.013,0.715-10.416,1.668
			c-1.703,0.476-3.381,1.058-5.024,1.726C460.688,220.303,459.072,221.053,457.5,221.898z"/>
	</g>
	<g>
		<path d="M537.5,222.898c2.942-2.037,6.235-3.552,9.642-4.698c3.41-1.146,6.996-1.818,10.613-1.935
			c3.613-0.099,7.266,0.381,10.683,1.57c1.706,0.594,3.357,1.334,4.924,2.217c1.551,0.911,3.036,1.927,4.389,3.096
			c-2.96-1.994-6.164-3.589-9.546-4.579c-3.381-0.987-6.906-1.421-10.421-1.305c-3.518,0.089-7.013,0.715-10.416,1.668
			c-1.704,0.476-3.381,1.058-5.024,1.726C540.688,221.303,539.072,222.053,537.5,222.898z"/>
	</g>
</g>
<g>
	<g>
		<path d="M507.75,287.189c-0.38,0.042-0.753,0.077-1.132,0.117c0.4-0.072,0.632-0.117,0.632-0.117c-38-14.75-76.25-0.25-76.25-0.25
			c0.223,0.042,0.444,0.078,0.666,0.119C467.375,313.355,507.75,287.189,507.75,287.189z"/>
		<path fill="#F15A29" d="M431.5,286.939c0,0,30.25,10.833,76.25,0.25C507.75,287.189,470,323.334,431.5,286.939z"/>
		<path fill="#F7941E" d="M431,286.939c0,0,32-25.189,76.25,0.25C507.25,287.189,477.584,283.772,431,286.939z"/>
		<path opacity="0.5" fill="#FFFFFF" d="M479.728,278.332c0,0,8.876,0.125,15.397,3.875l-19.292,1.75
			C475.833,283.957,493.313,280.707,479.728,278.332z"/>
		<ellipse opacity="0.5" fill="#FFFFFF" cx="473.75" cy="283.5" rx="1.25" ry="0.898"/>
	</g>
</g>
</svg>
