<?xml version="1.0" encoding="utf-8"?>
<!-- Generator: Adobe Illustrator 15.1.0, SVG Export Plug-In . SVG Version: 6.00 Build 0)  -->
<!DOCTYPE svg PUBLIC "-//W3C//DTD SVG 1.1//EN" "http://www.w3.org/Graphics/SVG/1.1/DTD/svg11.dtd">
<svg version="1.1" id="Layer_1" xmlns="http://www.w3.org/2000/svg" xmlns:xlink="http://www.w3.org/1999/xlink" x="0px" y="0px"
	 width="235.85px" height="88px" viewBox="0 0 235.85 88" enable-background="new 0 0 235.85 88" xml:space="preserve">
<g>
	
		<rect x="-327.68" y="54.87" transform="matrix(-0.974 -0.2265 0.2265 -0.974 -563.3009 51.7774)" fill="#FFF200" width="98" height="6.666"/>
	<g>
		<g>
			<path fill="#FFF200" d="M-456.178,32.153c0,0,15.424,0.594,25.389-16.223c9.961-16.816,35.94,0.266,44.873,6.727
				c8.929,6.461,40.083,26.552,63.01,18.271c0,0,20.475,27.606-0.085,21.32c-0.886,9.195-3.267,17.986-9.106,18.474
				c-4.385,1.283-8.8-0.575-12.666-8.058c-10.067,11.168-15.372,19.487-30.417-4.001c-28.975,17.585-50.98-0.505-51.841-10.237
				c-0.126-1.451-0.147-3.145-0.071-5.021C-448.824,54.002-467.874,36.896-456.178,32.153z"/>
			<path fill="#EEDC00" d="M-323.215,40.63c0,0,20.725,27.405-0.235,22.071c0,0-2.132,33.56-21.79,10.354
				c0,0,17.88,2.677,15.554-13.239c-2.328-15.917-14.461-17.648-14.461-17.648S-333.548,44.63-323.215,40.63z"/>
		</g>
		<path fill="#EEDC00" d="M-407.747,49.047c0,0-24.916,16.996-25.341-9.035C-433.088,40.012-428.331,57.375-407.747,49.047z"/>
		<path fill="#EEDC00" d="M-413.863,35.814c0,0-24.916,16.994-25.341-9.035C-439.204,26.779-434.444,44.141-413.863,35.814z"/>
		<path fill="#EEDC00" d="M-381.279,57.108c0,0-24.916,16.995-25.342-9.034C-406.621,48.074-401.862,65.436-381.279,57.108z"/>
		<path fill="#EEDC00" d="M-362.765,46.727c0,0-24.916,16.995-25.342-9.035C-388.107,37.692-383.348,55.054-362.765,46.727z"/>
		<path fill="#EEDC00" d="M-376.483,68.578c0,0-15.559,13.721-18.065-4.01C-394.548,64.568-389.821,76.013-376.483,68.578z"/>
		<path fill="#EEDC00" d="M-403.762,60.034c0,0-15.557,13.72-18.064-4.009C-421.826,56.025-417.1,67.471-403.762,60.034z"/>
		<path fill="#EEDC00" d="M-345.99,72.176c0,0-15.556,13.72-18.064-4.01C-364.054,68.166-359.328,79.612-345.99,72.176z"/>
		<path fill="#EEDC00" d="M-355.345,59.295c0,0-19.776,22.771-26.806-2.295C-382.15,57-373.135,72.583-355.345,59.295z"/>
	</g>
</g>
<g>
	
		<rect x="-0.603" y="53.954" transform="matrix(0.9716 -0.2367 0.2367 0.9716 -12.1838 13.0825)" fill="#FFF200" width="98" height="6.666"/>
	<g>
		<g>
			<path fill="#FFF200" d="M225.612,29.379c0,0-15.417,0.755-25.557-15.956c-10.137-16.711-35.936,0.642-44.801,7.197
				c-8.859,6.554-39.802,26.97-62.814,18.93c0,0-20.185,27.819,0.309,21.318c0.981,9.185,3.455,17.951,9.299,18.376
				c4.398,1.237,8.793-0.667,12.581-8.189c10.184,11.063,15.575,19.325,30.373-4.32c29.158,17.281,50.973-1.04,51.731-10.779
				c0.111-1.452,0.114-3.146,0.019-5.021C218.488,51.303,237.356,34,225.612,29.379z"/>
			<path fill="#EEDC00" d="M92.746,39.249c0,0-20.437,27.621,0.467,22.067c0,0,2.483,33.535,21.896,10.125
				c0,0-17.851,2.865-15.691-13.075c2.161-15.941,14.275-17.798,14.275-17.798S103.12,43.141,92.746,39.249z"/>
		</g>
		<path fill="#EEDC00" d="M177.361,46.779c0,0,25.093,16.734,25.245-9.3C202.606,37.479,198.031,54.892,177.361,46.779z"/>
		<path fill="#EEDC00" d="M183.338,33.483c0,0,25.092,16.732,25.245-9.3C208.583,24.183,204.006,41.593,183.338,33.483z"/>
		<path fill="#EEDC00" d="M150.979,55.117c0,0,25.093,16.733,25.246-9.299C176.225,45.818,171.647,63.229,150.979,55.117z"/>
		<path fill="#EEDC00" d="M132.357,44.931c0,0,25.092,16.733,25.246-9.299C157.604,35.631,153.026,53.042,132.357,44.931z"/>
		<path fill="#EEDC00" d="M146.304,66.637c0,0,15.702,13.557,18.022-4.199C164.326,62.438,159.719,73.932,146.304,66.637z"/>
		<path fill="#EEDC00" d="M173.491,57.808c0,0,15.7,13.557,18.021-4.198C191.513,53.609,186.907,65.104,173.491,57.808z"/>
		<path fill="#EEDC00" d="M115.85,70.554c0,0,15.699,13.556,18.021-4.199C133.871,66.355,129.266,77.85,115.85,70.554z"/>
		<path fill="#EEDC00" d="M125.069,57.576c0,0,20.014,22.563,26.78-2.576C151.85,55,142.998,70.676,125.069,57.576z"/>
	</g>
</g>
<g>
	<g>
		<path fill="#FFF200" d="M426.643-34.806c0,0,14.803,4.376,28.604-9.467c13.797-13.844,34.768,9.112,41.832,17.575
			c7.063,8.462,32.307,35.608,56.566,33.232c0,0,13.043,31.799-5.334,20.641c-3.123,8.694-7.598,16.627-13.377,15.661
			c-4.566,0.163-8.385-2.726-10.291-10.93c-12.506,8.344-19.697,15.101-28.492-11.372c-32.416,9.906-49.287-13.05-47.723-22.692
			c0.234-1.438,0.633-3.084,1.17-4.885C428.387-11.818,414.141-33.09,426.643-34.806z"/>
		<path fill="#EEDC00" d="M553.42,6.167c0,0,13.334,31.667-5.666,21.333c0,0-10.334,32-23.668,4.667c0,0,16.668,7,18.334-9
			S532.754,2.5,532.754,2.5S542.42,7.5,553.42,6.167z"/>
	</g>
	<path fill="#EEDC00" d="M469.42-6.5c0,0-28.334,10.333-22.334-15C447.086-21.5,447.42-3.5,469.42-6.5z"/>
	<path fill="#EEDC00" d="M466.752-20.833c0,0-28.334,10.333-22.334-15C444.418-35.833,444.752-17.833,466.752-20.833z"/>
	<path fill="#EEDC00" d="M493.086,7.833c0,0-28.334,10.333-22.334-15C470.752-7.167,471.086,10.833,493.086,7.833z"/>
	<path fill="#EEDC00" d="M513.586,2.333c0,0-28.334,10.333-22.334-15C491.252-12.667,491.586,5.333,513.586,2.333z"/>
	<path fill="#EEDC00" d="M494.908,20.13c0,0-18.459,9.465-16.52-8.336C478.389,11.794,480.148,24.051,494.908,20.13z"/>
	<path fill="#EEDC00" d="M470.576,5.13c0,0-18.459,9.465-16.521-8.336C454.055-3.206,455.816,9.051,470.576,5.13z"/>
	<path fill="#EEDC00" d="M523.576,31.13c0,0-18.459,9.465-16.521-8.336C507.055,22.794,508.816,35.051,523.576,31.13z"/>
	<path fill="#EEDC00" d="M517.682,16.342c0,0-24.775,17.198-25.414-8.828C492.268,7.514,497.168,24.837,517.682,16.342z"/>
</g>
<path fill="#FFF200" d="M-35.397,107.916c1.241-4.913,1.914-10.01,1.914-15.245c0-7.4-1.311-14.535-3.735-21.242
	c6.265,0.249,14.318-3.155,14.318-3.155c-9.476,0.838-16.806-4.599-18.413-5.901c-2.624-4.808-5.859-9.313-9.607-13.455
	c4.991-1.561,8.521-3.949,8.521-3.949c-4.976,2.913-14.341-2.533-18.462-5.248c-7.454-5.77-16.132-10.373-25.657-13.486
	C-78.826,19.373-76.9,10.25-76.9,10.25c-5.289,5.898-21.213,9.516-29.445,11.043c1.185-3.696,1.945-7.238,1.945-7.238
	c-2.671,3.684-6.838,6.146-10.143,7.64c-0.298-0.003-0.591-0.02-0.89-0.02c-35.399,0-65.553,19.445-77.013,46.677
	c-0.458,0.793-4.836,8.109-11.455,9.908c0,0,3.743,0.744,8.096,0.525c-1.028,4.491-1.578,9.132-1.578,13.885
	c0,4.517,0.508,8.928,1.438,13.21c0.471,4.358,0.796,11.572-1.957,13.044c0,0,3.156-1.065,4.668-3.95
	c10.797,28.279,41.537,48.692,77.8,48.692c36.31,0,67.085-20.467,77.843-48.804c2.09,5.182,5.939,6.916,5.939,6.916
	C-34.922,119.833-35.351,111.05-35.397,107.916z"/>
<g>
	<path fill="#F15A29" d="M-206.984,286.541c0,0,33,5,76.25,0.25C-130.734,286.791-171.234,313.041-206.984,286.541z"/>
	<path fill="#F7941E" d="M-207.484,286.541c0,0,38.25-14.5,76.25,0.25C-131.234,286.791-167.984,294.041-207.484,286.541z"/>
	<path opacity="0.5" fill="#FFFFFF" d="M-152.423,282.832c0,0,8.876,0.125,15.397,3.875l-19.292,1.75
		C-156.317,288.457-138.838,285.207-152.423,282.832z"/>
	<ellipse opacity="0.5" fill="#FFFFFF" cx="-158.4" cy="288" rx="1.25" ry="0.898"/>
</g>
<g>
	<g>
		<circle cx="-155.82" cy="218.829" r="25"/>
		<path fill="#FFFFFF" d="M-171.928,209.603c0,0-2.708,7.154-6.557,8.906c0,0,6.415,6.132,5.987,10.075c0,0,0.855-7.885,7.27-10.075
			C-165.228,218.509-171.356,214.859-171.928,209.603z"/>
		<path fill="#FFFFFF" d="M-166.478,201.103c0,0-1.139,3.008-2.757,3.745c0,0,2.697,2.578,2.518,4.236c0,0,0.359-3.315,3.057-4.236
			C-163.661,204.848-166.238,203.313-166.478,201.103z"/>
		<path fill="#FFFFFF" d="M-159.916,229.5c0,0-1.783,4.711-4.318,5.865c0,0,4.225,4.039,3.943,6.635c0,0,0.563-5.191,4.789-6.635
			C-155.503,235.365-159.54,232.962-159.916,229.5z"/>
		<circle fill="#FFFFFF" cx="-150.391" cy="214.712" r="14.942"/>
		<circle fill="#FFFFFF" cx="-148.901" cy="233.75" r="2.586"/>
	</g>
	<g>
		<circle cx="-75.653" cy="217.995" r="25"/>
		<circle fill="#FFFFFF" cx="-81.558" cy="214.212" r="14.942"/>
		<path fill="#FFFFFF" d="M-58.426,208.436c0,0-2.641,6.809-6.393,8.477c0,0,6.254,5.836,5.837,9.588c0,0,0.833-7.504,7.087-9.588
			C-51.895,216.912-57.87,213.438-58.426,208.436z"/>
		<path fill="#FFFFFF" d="M-65.479,196.353c0,0-1.139,3.008-2.756,3.745c0,0,2.697,2.578,2.518,4.236c0,0,0.359-3.315,3.057-4.236
			C-62.66,200.098-65.238,198.563-65.479,196.353z"/>
		<path fill="#FFFFFF" d="M-73.749,228.334c0,0-1.783,4.711-4.319,5.865c0,0,4.226,4.038,3.943,6.635c0,0,0.563-5.192,4.788-6.635
			C-69.337,234.199-73.374,231.795-73.749,228.334z"/>
		<circle fill="#FFFFFF" cx="-83.151" cy="233.25" r="2.585"/>
	</g>
</g>
<g>
	<g>
		<path d="M-6.65,222.898c2.943-2.037,6.235-3.552,9.642-4.698c3.411-1.146,6.996-1.818,10.612-1.935
			c3.613-0.099,7.266,0.381,10.684,1.57c1.706,0.594,3.357,1.334,4.924,2.217c1.551,0.911,3.036,1.927,4.389,3.096
			c-2.96-1.994-6.164-3.589-9.547-4.579c-3.38-0.987-6.906-1.421-10.42-1.305c-3.518,0.089-7.013,0.715-10.416,1.668
			c-1.703,0.476-3.381,1.058-5.024,1.726C-3.463,221.303-5.078,222.053-6.65,222.898z"/>
	</g>
	<g>
		<path d="M73.35,223.898c2.942-2.037,6.235-3.552,9.642-4.698c3.41-1.146,6.996-1.818,10.613-1.935
			c3.613-0.099,7.266,0.381,10.683,1.57c1.706,0.594,3.357,1.334,4.924,2.217c1.551,0.911,3.036,1.927,4.389,3.096
			c-2.96-1.994-6.164-3.589-9.546-4.579c-3.381-0.987-6.906-1.421-10.421-1.305c-3.518,0.089-7.013,0.715-10.416,1.668
			c-1.704,0.476-3.381,1.058-5.024,1.726C76.537,222.303,74.922,223.053,73.35,223.898z"/>
	</g>
</g>
<g>
	<g>
		<path d="M43.6,288.189c-0.38,0.042-0.753,0.077-1.132,0.117c0.4-0.072,0.632-0.117,0.632-0.117c-38-14.75-76.25-0.25-76.25-0.25
			c0.223,0.042,0.444,0.078,0.666,0.119C3.225,314.355,43.6,288.189,43.6,288.189z"/>
		<path fill="#F15A29" d="M-32.65,287.939c0,0,30.25,10.833,76.25,0.25C43.6,288.189,5.85,324.334-32.65,287.939z"/>
		<path fill="#F7941E" d="M-33.15,287.939c0,0,32-25.189,76.25,0.25C43.1,288.189,13.434,284.772-33.15,287.939z"/>
		<path opacity="0.5" fill="#FFFFFF" d="M15.577,279.332c0,0,8.876,0.125,15.397,3.875l-19.292,1.75
			C11.683,284.957,29.162,281.707,15.577,279.332z"/>
		<ellipse opacity="0.5" fill="#FFFFFF" cx="9.6" cy="284.5" rx="1.25" ry="0.898"/>
	</g>
</g>
</svg>
