<?xml version="1.0" encoding="utf-8"?>
<!-- Generator: Adobe Illustrator 15.1.0, SVG Export Plug-In . SVG Version: 6.00 Build 0)  -->
<!DOCTYPE svg PUBLIC "-//W3C//DTD SVG 1.1//EN" "http://www.w3.org/Graphics/SVG/1.1/DTD/svg11.dtd">
<svg version="1.1" id="Layer_1" xmlns="http://www.w3.org/2000/svg" xmlns:xlink="http://www.w3.org/1999/xlink" x="0px" y="0px"
	 width="91px" height="35.5px" viewBox="0 0 91 35.5" enable-background="new 0 0 91 35.5" xml:space="preserve">
<g>
	
		<rect x="-285.03" y="-218.13" transform="matrix(-0.974 -0.2265 0.2265 -0.974 -417.2784 -477.4691)" fill="#FFF200" width="98" height="6.666"/>
	<g>
		<g>
			<path fill="#FFF200" d="M-413.528-240.847c0,0,15.424,0.594,25.389-16.223c9.961-16.816,35.94,0.266,44.873,6.727
				c8.929,6.461,40.083,26.552,63.01,18.271c0,0,20.475,27.606-0.085,21.32c-0.886,9.195-3.267,17.986-9.106,18.474
				c-4.385,1.283-8.8-0.575-12.666-8.058c-10.067,11.168-15.372,19.487-30.417-4.001c-28.975,17.585-50.98-0.505-51.841-10.237
				c-0.126-1.451-0.147-3.145-0.071-5.021C-406.174-218.998-425.223-236.104-413.528-240.847z"/>
			<path fill="#EEDC00" d="M-280.565-232.37c0,0,20.725,27.405-0.235,22.071c0,0-2.132,33.56-21.79,10.354
				c0,0,17.88,2.677,15.554-13.239c-2.328-15.917-14.461-17.648-14.461-17.648S-290.897-228.37-280.565-232.37z"/>
		</g>
		<path fill="#EEDC00" d="M-365.097-223.953c0,0-24.916,16.996-25.341-9.035C-390.438-232.988-385.68-215.625-365.097-223.953z"/>
		<path fill="#EEDC00" d="M-371.212-237.186c0,0-24.916,16.994-25.341-9.035C-396.553-246.221-391.794-228.859-371.212-237.186z"/>
		<path fill="#EEDC00" d="M-338.628-215.892c0,0-24.916,16.995-25.342-9.034C-363.971-224.926-359.211-207.564-338.628-215.892z"/>
		<path fill="#EEDC00" d="M-320.114-226.273c0,0-24.916,16.995-25.342-9.035C-345.457-235.308-340.697-217.946-320.114-226.273z"/>
		<path fill="#EEDC00" d="M-333.833-204.422c0,0-15.559,13.721-18.065-4.01C-351.898-208.432-347.171-196.987-333.833-204.422z"/>
		<path fill="#EEDC00" d="M-361.111-212.966c0,0-15.557,13.72-18.064-4.009C-379.175-216.975-374.45-205.529-361.111-212.966z"/>
		<path fill="#EEDC00" d="M-303.34-200.824c0,0-15.556,13.72-18.064-4.01C-321.404-204.834-316.678-193.388-303.34-200.824z"/>
		<path fill="#EEDC00" d="M-312.694-213.705c0,0-19.776,22.771-26.806-2.295C-339.5-216-330.485-200.417-312.694-213.705z"/>
	</g>
</g>
<g>
	
		<rect x="42.048" y="-219.046" transform="matrix(0.9716 -0.2367 0.2367 0.9716 53.642 15.4204)" fill="#FFF200" width="98" height="6.666"/>
	<g>
		<g>
			<path fill="#FFF200" d="M268.263-243.621c0,0-15.417,0.755-25.557-15.956c-10.137-16.711-35.936,0.642-44.801,7.197
				c-8.859,6.554-39.802,26.97-62.814,18.93c0,0-20.185,27.819,0.309,21.318c0.981,9.185,3.455,17.951,9.299,18.376
				c4.398,1.237,8.793-0.667,12.581-8.189c10.184,11.063,15.575,19.325,30.373-4.32c29.158,17.281,50.973-1.04,51.731-10.779
				c0.111-1.452,0.114-3.146,0.019-5.021C261.139-221.697,280.007-239,268.263-243.621z"/>
			<path fill="#EEDC00" d="M135.396-233.751c0,0-20.437,27.621,0.467,22.067c0,0,2.483,33.535,21.896,10.125
				c0,0-17.851,2.865-15.691-13.075c2.161-15.941,14.275-17.798,14.275-17.798S145.771-229.859,135.396-233.751z"/>
		</g>
		<path fill="#EEDC00" d="M220.012-226.221c0,0,25.093,16.734,25.245-9.3C245.257-235.521,240.682-218.108,220.012-226.221z"/>
		<path fill="#EEDC00" d="M225.988-239.517c0,0,25.092,16.732,25.245-9.3C251.233-248.817,246.656-231.407,225.988-239.517z"/>
		<path fill="#EEDC00" d="M193.629-217.883c0,0,25.093,16.733,25.246-9.299C218.875-227.182,214.298-209.771,193.629-217.883z"/>
		<path fill="#EEDC00" d="M175.008-228.069c0,0,25.092,16.733,25.246-9.299C200.254-237.369,195.677-219.958,175.008-228.069z"/>
		<path fill="#EEDC00" d="M188.954-206.363c0,0,15.702,13.557,18.022-4.199C206.977-210.562,202.369-199.068,188.954-206.363z"/>
		<path fill="#EEDC00" d="M216.142-215.192c0,0,15.7,13.557,18.021-4.198C234.163-219.391,229.558-207.896,216.142-215.192z"/>
		<path fill="#EEDC00" d="M158.5-202.446c0,0,15.699,13.556,18.021-4.199C176.521-206.645,171.916-195.15,158.5-202.446z"/>
		<path fill="#EEDC00" d="M167.72-215.424c0,0,20.014,22.563,26.78-2.576C194.5-218,185.648-202.324,167.72-215.424z"/>
	</g>
</g>
<g>
	<g>
		<path fill="#FFF200" d="M469.293-307.806c0,0,14.803,4.376,28.604-9.467c13.797-13.844,34.768,9.112,41.832,17.575
			c7.063,8.462,32.307,35.608,56.566,33.232c0,0,13.043,31.799-5.334,20.641c-3.123,8.694-7.598,16.627-13.377,15.661
			c-4.566,0.163-8.385-2.726-10.291-10.93c-12.506,8.344-19.697,15.101-28.492-11.372c-32.416,9.906-49.287-13.05-47.723-22.692
			c0.234-1.438,0.633-3.084,1.17-4.885C471.037-284.818,456.791-306.09,469.293-307.806z"/>
		<path fill="#EEDC00" d="M596.07-266.833c0,0,13.334,31.667-5.666,21.333c0,0-10.334,32-23.668,4.667c0,0,16.668,7,18.334-9
			s-9.666-20.667-9.666-20.667S585.07-265.5,596.07-266.833z"/>
	</g>
	<path fill="#EEDC00" d="M512.07-279.5c0,0-28.334,10.333-22.334-15C489.736-294.5,490.07-276.5,512.07-279.5z"/>
	<path fill="#EEDC00" d="M509.402-293.833c0,0-28.334,10.333-22.334-15C487.068-308.833,487.402-290.833,509.402-293.833z"/>
	<path fill="#EEDC00" d="M535.736-265.167c0,0-28.334,10.333-22.334-15C513.402-280.167,513.736-262.167,535.736-265.167z"/>
	<path fill="#EEDC00" d="M556.236-270.667c0,0-28.334,10.333-22.334-15C533.902-285.667,534.236-267.667,556.236-270.667z"/>
	<path fill="#EEDC00" d="M537.559-252.87c0,0-18.459,9.465-16.52-8.336C521.039-261.206,522.799-248.949,537.559-252.87z"/>
	<path fill="#EEDC00" d="M513.227-267.87c0,0-18.459,9.465-16.521-8.336C496.705-276.206,498.467-263.949,513.227-267.87z"/>
	<path fill="#EEDC00" d="M566.227-241.87c0,0-18.459,9.465-16.521-8.336C549.705-250.206,551.467-237.949,566.227-241.87z"/>
	<path fill="#EEDC00" d="M560.332-256.658c0,0-24.775,17.198-25.414-8.828C534.918-265.486,539.818-248.163,560.332-256.658z"/>
</g>
<path fill="#FFF200" d="M7.253-165.084c1.241-4.913,1.914-10.01,1.914-15.245c0-7.4-1.311-14.535-3.735-21.242
	c6.265,0.249,14.318-3.155,14.318-3.155c-9.476,0.838-16.806-4.599-18.413-5.901c-2.624-4.808-5.859-9.313-9.607-13.455
	c4.991-1.561,8.521-3.949,8.521-3.949c-4.976,2.913-14.341-2.533-18.462-5.248c-7.454-5.77-16.132-10.373-25.657-13.486
	c7.693-6.862,9.619-15.985,9.619-15.985c-5.289,5.898-21.213,9.516-29.445,11.043c1.185-3.696,1.945-7.238,1.945-7.238
	c-2.671,3.684-6.838,6.146-10.143,7.64c-0.298-0.003-0.591-0.02-0.89-0.02c-35.399,0-65.553,19.445-77.013,46.677
	c-0.458,0.793-4.836,8.109-11.455,9.908c0,0,3.743,0.744,8.096,0.525c-1.028,4.491-1.578,9.132-1.578,13.885
	c0,4.517,0.508,8.928,1.438,13.21c0.471,4.358,0.796,11.572-1.957,13.044c0,0,3.156-1.065,4.668-3.95
	c10.797,28.279,41.537,48.692,77.8,48.692c36.31,0,67.085-20.467,77.843-48.804c2.09,5.182,5.939,6.916,5.939,6.916
	C7.729-153.167,7.3-161.95,7.253-165.084z"/>
<g>
	<path fill="#F15A29" d="M-164.334,13.541c0,0,33,5,76.25,0.25C-88.084,13.791-128.584,40.041-164.334,13.541z"/>
	<path fill="#F7941E" d="M-164.834,13.541c0,0,38.25-14.5,76.25,0.25C-88.584,13.791-125.334,21.041-164.834,13.541z"/>
	<path opacity="0.5" fill="#FFFFFF" d="M-109.772,9.832c0,0,8.876,0.125,15.397,3.875l-19.292,1.75
		C-113.667,15.457-96.188,12.207-109.772,9.832z"/>
	<ellipse opacity="0.5" fill="#FFFFFF" cx="-115.75" cy="15" rx="1.25" ry="0.898"/>
</g>
<g>
	<g>
		<circle cx="-113.169" cy="-54.171" r="25"/>
		<path fill="#FFFFFF" d="M-129.277-63.397c0,0-2.708,7.154-6.557,8.906c0,0,6.415,6.132,5.987,10.075c0,0,0.855-7.885,7.27-10.075
			C-122.577-54.491-128.706-58.141-129.277-63.397z"/>
		<path fill="#FFFFFF" d="M-123.828-71.897c0,0-1.139,3.008-2.757,3.745c0,0,2.697,2.578,2.518,4.236c0,0,0.359-3.315,3.057-4.236
			C-121.01-68.152-123.587-69.687-123.828-71.897z"/>
		<path fill="#FFFFFF" d="M-117.266-43.5c0,0-1.783,4.711-4.318,5.865c0,0,4.225,4.039,3.943,6.635c0,0,0.563-5.191,4.789-6.635
			C-112.853-37.635-116.89-40.038-117.266-43.5z"/>
		<circle fill="#FFFFFF" cx="-107.741" cy="-58.288" r="14.942"/>
		<circle fill="#FFFFFF" cx="-106.25" cy="-39.25" r="2.586"/>
	</g>
	<g>
		<circle cx="-33.002" cy="-55.005" r="25"/>
		<circle fill="#FFFFFF" cx="-38.908" cy="-58.788" r="14.942"/>
		<path fill="#FFFFFF" d="M-15.775-64.564c0,0-2.641,6.809-6.393,8.477c0,0,6.254,5.836,5.837,9.588c0,0,0.833-7.504,7.087-9.588
			C-9.244-56.088-15.22-59.562-15.775-64.564z"/>
		<path fill="#FFFFFF" d="M-22.828-76.647c0,0-1.139,3.008-2.756,3.745c0,0,2.697,2.578,2.518,4.236c0,0,0.359-3.315,3.057-4.236
			C-20.01-72.902-22.588-74.437-22.828-76.647z"/>
		<path fill="#FFFFFF" d="M-31.099-44.666c0,0-1.783,4.711-4.319,5.865c0,0,4.226,4.038,3.943,6.635c0,0,0.563-5.192,4.788-6.635
			C-26.687-38.801-30.724-41.205-31.099-44.666z"/>
		<circle fill="#FFFFFF" cx="-40.5" cy="-39.75" r="2.585"/>
	</g>
</g>
<g>
	<g>
		<path d="M36-50.102c2.943-2.037,6.235-3.552,9.642-4.698c3.411-1.146,6.996-1.818,10.612-1.935
			c3.613-0.099,7.266,0.381,10.684,1.57c1.706,0.594,3.357,1.334,4.924,2.217c1.551,0.911,3.036,1.927,4.389,3.096
			c-2.96-1.994-6.164-3.589-9.547-4.579c-3.38-0.987-6.906-1.421-10.42-1.305c-3.518,0.089-7.013,0.715-10.416,1.668
			c-1.703,0.476-3.381,1.058-5.024,1.726C39.188-51.697,37.572-50.947,36-50.102z"/>
	</g>
	<g>
		<path d="M116-49.102c2.942-2.037,6.235-3.552,9.642-4.698c3.41-1.146,6.996-1.818,10.613-1.935
			c3.613-0.099,7.266,0.381,10.683,1.57c1.706,0.594,3.357,1.334,4.924,2.217c1.551,0.911,3.036,1.927,4.389,3.096
			c-2.96-1.994-6.164-3.589-9.546-4.579c-3.381-0.987-6.906-1.421-10.421-1.305c-3.518,0.089-7.013,0.715-10.416,1.668
			c-1.704,0.476-3.381,1.058-5.024,1.726C119.188-50.697,117.572-49.947,116-49.102z"/>
	</g>
</g>
<g>
	<g>
		<path d="M86.25,15.189c-0.38,0.042-0.753,0.077-1.132,0.117c0.4-0.072,0.632-0.117,0.632-0.117c-38-14.75-76.25-0.25-76.25-0.25
			c0.223,0.042,0.444,0.078,0.666,0.119C45.875,41.355,86.25,15.189,86.25,15.189z"/>
		<path fill="#F15A29" d="M10,14.939c0,0,30.25,10.833,76.25,0.25C86.25,15.189,48.5,51.334,10,14.939z"/>
		<path fill="#F7941E" d="M9.5,14.939c0,0,32-25.189,76.25,0.25C85.75,15.189,56.084,11.772,9.5,14.939z"/>
		<path opacity="0.5" fill="#FFFFFF" d="M58.228,6.332c0,0,8.876,0.125,15.397,3.875l-19.292,1.75
			C54.333,11.957,71.813,8.707,58.228,6.332z"/>
		<ellipse opacity="0.5" fill="#FFFFFF" cx="52.25" cy="11.5" rx="1.25" ry="0.898"/>
	</g>
</g>
</svg>
