<?xml version="1.0" encoding="utf-8"?>
<!-- Generator: Adobe Illustrator 15.1.0, SVG Export Plug-In . SVG Version: 6.00 Build 0)  -->
<!DOCTYPE svg PUBLIC "-//W3C//DTD SVG 1.1//EN" "http://www.w3.org/Graphics/SVG/1.1/DTD/svg11.dtd">
<svg version="1.1" id="Layer_1" xmlns="http://www.w3.org/2000/svg" xmlns:xlink="http://www.w3.org/1999/xlink" x="0px" y="0px"
	 width="138.5px" height="62px" viewBox="0 0 138.5 62" enable-background="new 0 0 138.5 62" xml:space="preserve">
<g>
	
		<rect x="-143.53" y="-134.13" transform="matrix(-0.974 -0.2265 0.2265 -0.974 -156.9799 -279.6044)" fill="#FFF200" width="98" height="6.666"/>
	<g>
		<g>
			<path fill="#FFF200" d="M-272.028-156.847c0,0,15.424,0.594,25.389-16.223c9.961-16.816,35.94,0.266,44.873,6.727
				c8.929,6.461,40.083,26.552,63.01,18.271c0,0,20.475,27.606-0.085,21.32c-0.886,9.195-3.267,17.986-9.106,18.474
				c-4.385,1.283-8.8-0.575-12.666-8.058c-10.067,11.168-15.372,19.487-30.417-4.001c-28.975,17.585-50.98-0.505-51.841-10.237
				c-0.126-1.451-0.147-3.145-0.071-5.021C-264.674-134.998-283.723-152.104-272.028-156.847z"/>
			<path fill="#EEDC00" d="M-139.065-148.37c0,0,20.725,27.405-0.235,22.071c0,0-2.132,33.56-21.79,10.354
				c0,0,17.88,2.677,15.554-13.239c-2.328-15.917-14.461-17.648-14.461-17.648S-149.397-144.37-139.065-148.37z"/>
		</g>
		<path fill="#EEDC00" d="M-223.597-139.953c0,0-24.916,16.996-25.341-9.035C-248.938-148.988-244.18-131.625-223.597-139.953z"/>
		<path fill="#EEDC00" d="M-229.712-153.186c0,0-24.916,16.994-25.341-9.035C-255.053-162.221-250.294-144.859-229.712-153.186z"/>
		<path fill="#EEDC00" d="M-197.128-131.892c0,0-24.916,16.995-25.342-9.034C-222.471-140.926-217.711-123.564-197.128-131.892z"/>
		<path fill="#EEDC00" d="M-178.614-142.273c0,0-24.916,16.995-25.342-9.035C-203.957-151.308-199.197-133.946-178.614-142.273z"/>
		<path fill="#EEDC00" d="M-192.333-120.422c0,0-15.559,13.721-18.065-4.01C-210.398-124.432-205.671-112.987-192.333-120.422z"/>
		<path fill="#EEDC00" d="M-219.611-128.966c0,0-15.557,13.72-18.064-4.009C-237.675-132.975-232.95-121.529-219.611-128.966z"/>
		<path fill="#EEDC00" d="M-161.84-116.824c0,0-15.556,13.72-18.064-4.01C-179.904-120.834-175.178-109.388-161.84-116.824z"/>
		<path fill="#EEDC00" d="M-171.194-129.705c0,0-19.776,22.771-26.806-2.295C-198-132-188.985-116.417-171.194-129.705z"/>
	</g>
</g>
<g>
	
		<rect x="183.548" y="-135.046" transform="matrix(0.9716 -0.2367 0.2367 0.9716 37.7812 51.2974)" fill="#FFF200" width="98" height="6.666"/>
	<g>
		<g>
			<path fill="#FFF200" d="M409.763-159.621c0,0-15.417,0.755-25.557-15.956c-10.137-16.711-35.936,0.642-44.801,7.197
				c-8.859,6.554-39.802,26.97-62.814,18.93c0,0-20.185,27.819,0.309,21.318c0.981,9.185,3.455,17.951,9.299,18.376
				c4.398,1.237,8.793-0.667,12.581-8.189c10.184,11.063,15.575,19.325,30.373-4.32c29.158,17.281,50.973-1.04,51.731-10.779
				c0.111-1.452,0.114-3.146,0.019-5.021C402.639-137.697,421.507-155,409.763-159.621z"/>
			<path fill="#EEDC00" d="M276.896-149.751c0,0-20.437,27.621,0.467,22.067c0,0,2.483,33.535,21.896,10.125
				c0,0-17.851,2.865-15.691-13.075c2.161-15.941,14.275-17.798,14.275-17.798S287.271-145.859,276.896-149.751z"/>
		</g>
		<path fill="#EEDC00" d="M361.512-142.221c0,0,25.093,16.734,25.245-9.3C386.757-151.521,382.182-134.108,361.512-142.221z"/>
		<path fill="#EEDC00" d="M367.488-155.517c0,0,25.092,16.732,25.245-9.3C392.733-164.817,388.156-147.407,367.488-155.517z"/>
		<path fill="#EEDC00" d="M335.129-133.883c0,0,25.093,16.733,25.246-9.299C360.375-143.182,355.798-125.771,335.129-133.883z"/>
		<path fill="#EEDC00" d="M316.508-144.069c0,0,25.092,16.733,25.246-9.299C341.754-153.369,337.177-135.958,316.508-144.069z"/>
		<path fill="#EEDC00" d="M330.454-122.363c0,0,15.702,13.557,18.022-4.199C348.477-126.562,343.869-115.068,330.454-122.363z"/>
		<path fill="#EEDC00" d="M357.642-131.192c0,0,15.7,13.557,18.021-4.198C375.663-135.391,371.058-123.896,357.642-131.192z"/>
		<path fill="#EEDC00" d="M300-118.446c0,0,15.699,13.556,18.021-4.199C318.021-122.645,313.416-111.15,300-118.446z"/>
		<path fill="#EEDC00" d="M309.22-131.424c0,0,20.014,22.563,26.78-2.576C336-134,327.148-118.324,309.22-131.424z"/>
	</g>
</g>
<g>
	<g>
		<path fill="#FFF200" d="M610.793-223.806c0,0,14.803,4.376,28.604-9.467c13.797-13.844,34.768,9.112,41.832,17.575
			c7.063,8.462,32.307,35.608,56.566,33.232c0,0,13.043,31.799-5.334,20.641c-3.123,8.694-7.598,16.627-13.377,15.661
			c-4.566,0.163-8.385-2.726-10.291-10.93c-12.506,8.344-19.697,15.101-28.492-11.372c-32.416,9.906-49.287-13.05-47.723-22.692
			c0.234-1.438,0.633-3.084,1.17-4.885C612.537-200.818,598.291-222.09,610.793-223.806z"/>
		<path fill="#EEDC00" d="M737.57-182.833c0,0,13.334,31.667-5.666,21.333c0,0-10.334,32-23.668,4.667c0,0,16.668,7,18.334-9
			s-9.666-20.667-9.666-20.667S726.57-181.5,737.57-182.833z"/>
	</g>
	<path fill="#EEDC00" d="M653.57-195.5c0,0-28.334,10.333-22.334-15C631.236-210.5,631.57-192.5,653.57-195.5z"/>
	<path fill="#EEDC00" d="M650.902-209.833c0,0-28.334,10.333-22.334-15C628.568-224.833,628.902-206.833,650.902-209.833z"/>
	<path fill="#EEDC00" d="M677.236-181.167c0,0-28.334,10.333-22.334-15C654.902-196.167,655.236-178.167,677.236-181.167z"/>
	<path fill="#EEDC00" d="M697.736-186.667c0,0-28.334,10.333-22.334-15C675.402-201.667,675.736-183.667,697.736-186.667z"/>
	<path fill="#EEDC00" d="M679.059-168.87c0,0-18.459,9.465-16.52-8.336C662.539-177.206,664.299-164.949,679.059-168.87z"/>
	<path fill="#EEDC00" d="M654.727-183.87c0,0-18.459,9.465-16.521-8.336C638.205-192.206,639.967-179.949,654.727-183.87z"/>
	<path fill="#EEDC00" d="M707.727-157.87c0,0-18.459,9.465-16.521-8.336C691.205-166.206,692.967-153.949,707.727-157.87z"/>
	<path fill="#EEDC00" d="M701.832-172.658c0,0-24.775,17.198-25.414-8.828C676.418-181.486,681.318-164.163,701.832-172.658z"/>
</g>
<path fill="#FFF200" d="M148.753-81.084c1.241-4.913,1.914-10.01,1.914-15.245c0-7.4-1.311-14.535-3.735-21.242
	c6.265,0.249,14.318-3.155,14.318-3.155c-9.476,0.838-16.806-4.599-18.413-5.901c-2.624-4.808-5.859-9.313-9.607-13.455
	c4.991-1.561,8.521-3.949,8.521-3.949c-4.976,2.913-14.341-2.533-18.462-5.248c-7.454-5.77-16.132-10.373-25.657-13.486
	c7.693-6.862,9.619-15.985,9.619-15.985c-5.289,5.898-21.213,9.516-29.445,11.043c1.185-3.696,1.945-7.238,1.945-7.238
	c-2.671,3.684-6.838,6.146-10.143,7.64c-0.298-0.003-0.591-0.02-0.89-0.02c-35.399,0-65.553,19.445-77.013,46.677
	c-0.458,0.793-4.836,8.109-11.455,9.908c0,0,3.743,0.744,8.096,0.525c-1.028,4.491-1.578,9.132-1.578,13.885
	c0,4.517,0.508,8.928,1.438,13.21c0.471,4.358,0.796,11.572-1.957,13.044c0,0,3.156-1.065,4.668-3.95
	c10.797,28.279,41.537,48.692,77.8,48.692c36.31,0,67.085-20.467,77.843-48.804c2.09,5.182,5.939,6.916,5.939,6.916
	C149.229-69.167,148.8-77.95,148.753-81.084z"/>
<g>
	<path fill="#F15A29" d="M-22.834,97.541c0,0,33,5,76.25,0.25C53.416,97.791,12.916,124.041-22.834,97.541z"/>
	<path fill="#F7941E" d="M-23.334,97.541c0,0,38.25-14.5,76.25,0.25C52.916,97.791,16.166,105.041-23.334,97.541z"/>
	<path opacity="0.5" fill="#FFFFFF" d="M31.728,93.832c0,0,8.876,0.125,15.397,3.875l-19.292,1.75
		C27.833,99.457,45.313,96.207,31.728,93.832z"/>
	<ellipse opacity="0.5" fill="#FFFFFF" cx="25.75" cy="99" rx="1.25" ry="0.898"/>
</g>
<g>
	<g>
		<circle cx="28.331" cy="29.829" r="25"/>
		<path fill="#FFFFFF" d="M12.223,20.603c0,0-2.708,7.154-6.557,8.906c0,0,6.415,6.132,5.987,10.075c0,0,0.855-7.885,7.27-10.075
			C18.923,29.509,12.794,25.859,12.223,20.603z"/>
		<path fill="#FFFFFF" d="M17.672,12.103c0,0-1.139,3.008-2.757,3.745c0,0,2.697,2.578,2.518,4.236c0,0,0.359-3.315,3.057-4.236
			C20.49,15.848,17.913,14.313,17.672,12.103z"/>
		<path fill="#FFFFFF" d="M24.234,40.5c0,0-1.783,4.711-4.318,5.865c0,0,4.225,4.039,3.943,6.635c0,0,0.563-5.191,4.789-6.635
			C28.647,46.365,24.61,43.962,24.234,40.5z"/>
		<circle fill="#FFFFFF" cx="33.759" cy="25.712" r="14.942"/>
		<circle fill="#FFFFFF" cx="35.25" cy="44.75" r="2.586"/>
	</g>
	<g>
		<circle cx="108.498" cy="28.995" r="25"/>
		<circle fill="#FFFFFF" cx="102.592" cy="25.212" r="14.942"/>
		<path fill="#FFFFFF" d="M125.725,19.436c0,0-2.641,6.809-6.393,8.477c0,0,6.254,5.836,5.837,9.588c0,0,0.833-7.504,7.087-9.588
			C132.256,27.912,126.28,24.438,125.725,19.436z"/>
		<path fill="#FFFFFF" d="M118.672,7.353c0,0-1.139,3.008-2.756,3.745c0,0,2.697,2.578,2.518,4.236c0,0,0.359-3.315,3.057-4.236
			C121.49,11.098,118.912,9.563,118.672,7.353z"/>
		<path fill="#FFFFFF" d="M110.401,39.334c0,0-1.783,4.711-4.319,5.865c0,0,4.226,4.038,3.943,6.635c0,0,0.563-5.192,4.788-6.635
			C114.813,45.199,110.776,42.795,110.401,39.334z"/>
		<circle fill="#FFFFFF" cx="101" cy="44.25" r="2.585"/>
	</g>
</g>
<g>
	<g>
		<path d="M177.5,33.898c2.943-2.037,6.235-3.552,9.642-4.698c3.411-1.146,6.996-1.818,10.612-1.935
			c3.613-0.099,7.266,0.381,10.684,1.57c1.706,0.594,3.357,1.334,4.924,2.217c1.551,0.911,3.036,1.927,4.389,3.096
			c-2.96-1.994-6.164-3.589-9.547-4.579c-3.38-0.987-6.906-1.421-10.42-1.305c-3.518,0.089-7.013,0.715-10.416,1.668
			c-1.703,0.476-3.381,1.058-5.024,1.726C180.688,32.303,179.072,33.053,177.5,33.898z"/>
	</g>
	<g>
		<path d="M257.5,34.898c2.942-2.037,6.235-3.552,9.642-4.698c3.41-1.146,6.996-1.818,10.613-1.935
			c3.613-0.099,7.266,0.381,10.683,1.57c1.706,0.594,3.357,1.334,4.924,2.217c1.551,0.911,3.036,1.927,4.389,3.096
			c-2.96-1.994-6.164-3.589-9.546-4.579c-3.381-0.987-6.906-1.421-10.421-1.305c-3.518,0.089-7.013,0.715-10.416,1.668
			c-1.704,0.476-3.381,1.058-5.024,1.726C260.688,33.303,259.072,34.053,257.5,34.898z"/>
	</g>
</g>
<g>
	<g>
		<path d="M227.75,99.189c-0.38,0.042-0.753,0.077-1.132,0.117c0.4-0.072,0.632-0.117,0.632-0.117c-38-14.75-76.25-0.25-76.25-0.25
			c0.223,0.042,0.444,0.078,0.666,0.119C187.375,125.355,227.75,99.189,227.75,99.189z"/>
		<path fill="#F15A29" d="M151.5,98.939c0,0,30.25,10.833,76.25,0.25C227.75,99.189,190,135.334,151.5,98.939z"/>
		<path fill="#F7941E" d="M151,98.939c0,0,32-25.189,76.25,0.25C227.25,99.189,197.584,95.772,151,98.939z"/>
		<path opacity="0.5" fill="#FFFFFF" d="M199.728,90.332c0,0,8.876,0.125,15.397,3.875l-19.292,1.75
			C195.833,95.957,213.313,92.707,199.728,90.332z"/>
		<ellipse opacity="0.5" fill="#FFFFFF" cx="193.75" cy="95.5" rx="1.25" ry="0.898"/>
	</g>
</g>
</svg>
