<?xml version="1.0" encoding="utf-8"?>
<!-- Generator: Adobe Illustrator 15.1.0, SVG Export Plug-In . SVG Version: 6.00 Build 0)  -->
<!DOCTYPE svg PUBLIC "-//W3C//DTD SVG 1.1//EN" "http://www.w3.org/Graphics/SVG/1.1/DTD/svg11.dtd">
<svg version="1.1" id="Layer_1" xmlns="http://www.w3.org/2000/svg" xmlns:xlink="http://www.w3.org/1999/xlink" x="0px" y="0px"
	 width="90px" height="27.5px" viewBox="0 0 90 27.5" enable-background="new 0 0 90 27.5" xml:space="preserve">
<g>
	
		<rect x="-112.03" y="-220.63" transform="matrix(-0.974 -0.2265 0.2265 -0.974 -75.2076 -443.2225)" fill="#FFF200" width="98" height="6.666"/>
	<g>
		<g>
			<path fill="#FFF200" d="M-240.528-243.347c0,0,15.424,0.594,25.389-16.223c9.961-16.816,35.94,0.266,44.873,6.727
				c8.929,6.461,40.083,26.552,63.01,18.271c0,0,20.475,27.606-0.085,21.32c-0.886,9.195-3.267,17.986-9.106,18.474
				c-4.385,1.283-8.8-0.575-12.666-8.058c-10.067,11.168-15.372,19.487-30.417-4.001c-28.975,17.585-50.98-0.505-51.841-10.237
				c-0.126-1.451-0.147-3.145-0.071-5.021C-233.174-221.498-252.223-238.604-240.528-243.347z"/>
			<path fill="#EEDC00" d="M-107.565-234.87c0,0,20.725,27.405-0.235,22.071c0,0-2.132,33.56-21.79,10.354
				c0,0,17.88,2.677,15.554-13.239c-2.328-15.917-14.461-17.648-14.461-17.648S-117.897-230.87-107.565-234.87z"/>
		</g>
		<path fill="#EEDC00" d="M-192.097-226.453c0,0-24.916,16.996-25.341-9.035C-217.438-235.488-212.68-218.125-192.097-226.453z"/>
		<path fill="#EEDC00" d="M-198.212-239.686c0,0-24.916,16.994-25.341-9.035C-223.553-248.721-218.794-231.359-198.212-239.686z"/>
		<path fill="#EEDC00" d="M-165.628-218.392c0,0-24.916,16.995-25.342-9.034C-190.971-227.426-186.211-210.064-165.628-218.392z"/>
		<path fill="#EEDC00" d="M-147.114-228.773c0,0-24.916,16.995-25.342-9.035C-172.457-237.808-167.697-220.446-147.114-228.773z"/>
		<path fill="#EEDC00" d="M-160.833-206.922c0,0-15.559,13.721-18.065-4.01C-178.898-210.932-174.171-199.487-160.833-206.922z"/>
		<path fill="#EEDC00" d="M-188.111-215.466c0,0-15.557,13.72-18.064-4.009C-206.175-219.475-201.45-208.029-188.111-215.466z"/>
		<path fill="#EEDC00" d="M-130.34-203.324c0,0-15.556,13.72-18.064-4.01C-148.404-207.334-143.678-195.888-130.34-203.324z"/>
		<path fill="#EEDC00" d="M-139.694-216.205c0,0-19.776,22.771-26.806-2.295C-166.5-218.5-157.485-202.917-139.694-216.205z"/>
	</g>
</g>
<g>
	
		<rect x="215.048" y="-221.546" transform="matrix(0.9716 -0.2367 0.2367 0.9716 59.1491 56.2952)" fill="#FFF200" width="98" height="6.666"/>
	<g>
		<g>
			<path fill="#FFF200" d="M441.263-246.121c0,0-15.417,0.755-25.557-15.956c-10.137-16.711-35.936,0.642-44.801,7.197
				c-8.859,6.554-39.802,26.97-62.814,18.93c0,0-20.185,27.819,0.309,21.318c0.981,9.185,3.455,17.951,9.299,18.376
				c4.398,1.237,8.793-0.667,12.581-8.189c10.184,11.063,15.575,19.325,30.373-4.32c29.158,17.281,50.973-1.04,51.731-10.779
				c0.111-1.452,0.114-3.146,0.019-5.021C434.139-224.197,453.007-241.5,441.263-246.121z"/>
			<path fill="#EEDC00" d="M308.396-236.251c0,0-20.437,27.621,0.467,22.067c0,0,2.483,33.535,21.896,10.125
				c0,0-17.851,2.865-15.691-13.075c2.161-15.941,14.275-17.798,14.275-17.798S318.771-232.359,308.396-236.251z"/>
		</g>
		<path fill="#EEDC00" d="M393.012-228.721c0,0,25.093,16.734,25.245-9.3C418.257-238.021,413.682-220.608,393.012-228.721z"/>
		<path fill="#EEDC00" d="M398.988-242.017c0,0,25.092,16.732,25.245-9.3C424.233-251.317,419.656-233.907,398.988-242.017z"/>
		<path fill="#EEDC00" d="M366.629-220.383c0,0,25.093,16.733,25.246-9.299C391.875-229.682,387.298-212.271,366.629-220.383z"/>
		<path fill="#EEDC00" d="M348.008-230.569c0,0,25.092,16.733,25.246-9.299C373.254-239.869,368.677-222.458,348.008-230.569z"/>
		<path fill="#EEDC00" d="M361.954-208.863c0,0,15.702,13.557,18.022-4.199C379.977-213.062,375.369-201.568,361.954-208.863z"/>
		<path fill="#EEDC00" d="M389.142-217.692c0,0,15.7,13.557,18.021-4.198C407.163-221.891,402.558-210.396,389.142-217.692z"/>
		<path fill="#EEDC00" d="M331.5-204.946c0,0,15.699,13.556,18.021-4.199C349.521-209.145,344.916-197.65,331.5-204.946z"/>
		<path fill="#EEDC00" d="M340.72-217.924c0,0,20.014,22.563,26.78-2.576C367.5-220.5,358.648-204.824,340.72-217.924z"/>
	</g>
</g>
<g>
	<g>
		<path fill="#FFF200" d="M642.293-310.306c0,0,14.803,4.376,28.604-9.467c13.797-13.844,34.768,9.112,41.832,17.575
			c7.063,8.462,32.307,35.608,56.566,33.232c0,0,13.043,31.799-5.334,20.641c-3.123,8.694-7.598,16.627-13.377,15.661
			c-4.566,0.163-8.385-2.726-10.291-10.93c-12.506,8.344-19.697,15.101-28.492-11.372c-32.416,9.906-49.287-13.05-47.723-22.692
			c0.234-1.438,0.633-3.084,1.17-4.885C644.037-287.318,629.791-308.59,642.293-310.306z"/>
		<path fill="#EEDC00" d="M769.07-269.333c0,0,13.334,31.667-5.666,21.333c0,0-10.334,32-23.668,4.667c0,0,16.668,7,18.334-9
			S748.404-273,748.404-273S758.07-268,769.07-269.333z"/>
	</g>
	<path fill="#EEDC00" d="M685.07-282c0,0-28.334,10.333-22.334-15C662.736-297,663.07-279,685.07-282z"/>
	<path fill="#EEDC00" d="M682.402-296.333c0,0-28.334,10.333-22.334-15C660.068-311.333,660.402-293.333,682.402-296.333z"/>
	<path fill="#EEDC00" d="M708.736-267.667c0,0-28.334,10.333-22.334-15C686.402-282.667,686.736-264.667,708.736-267.667z"/>
	<path fill="#EEDC00" d="M729.236-273.167c0,0-28.334,10.333-22.334-15C706.902-288.167,707.236-270.167,729.236-273.167z"/>
	<path fill="#EEDC00" d="M710.559-255.37c0,0-18.459,9.465-16.52-8.336C694.039-263.706,695.799-251.449,710.559-255.37z"/>
	<path fill="#EEDC00" d="M686.227-270.37c0,0-18.459,9.465-16.521-8.336C669.705-278.706,671.467-266.449,686.227-270.37z"/>
	<path fill="#EEDC00" d="M739.227-244.37c0,0-18.459,9.465-16.521-8.336C722.705-252.706,724.467-240.449,739.227-244.37z"/>
	<path fill="#EEDC00" d="M733.332-259.158c0,0-24.775,17.198-25.414-8.828C707.918-267.986,712.818-250.663,733.332-259.158z"/>
</g>
<path fill="#FFF200" d="M180.253-167.584c1.241-4.913,1.914-10.01,1.914-15.245c0-7.4-1.311-14.535-3.735-21.242
	c6.265,0.249,14.318-3.155,14.318-3.155c-9.476,0.838-16.806-4.599-18.413-5.901c-2.624-4.808-5.859-9.313-9.607-13.455
	c4.991-1.561,8.521-3.949,8.521-3.949c-4.976,2.913-14.341-2.533-18.462-5.248c-7.454-5.77-16.132-10.373-25.657-13.486
	c7.693-6.862,9.619-15.985,9.619-15.985c-5.289,5.898-21.213,9.516-29.445,11.043c1.185-3.696,1.945-7.238,1.945-7.238
	c-2.671,3.684-6.838,6.146-10.143,7.64c-0.298-0.003-0.591-0.02-0.89-0.02c-35.399,0-65.553,19.445-77.013,46.677
	c-0.458,0.793-4.836,8.109-11.455,9.908c0,0,3.743,0.744,8.096,0.525c-1.028,4.491-1.578,9.132-1.578,13.885
	c0,4.517,0.508,8.928,1.438,13.21c0.471,4.358,0.796,11.572-1.957,13.044c0,0,3.156-1.065,4.668-3.95
	c10.797,28.279,41.537,48.692,77.8,48.692c36.31,0,67.085-20.467,77.843-48.804c2.09,5.182,5.939,6.916,5.939,6.916
	C180.729-155.667,180.3-164.45,180.253-167.584z"/>
<g>
	<path fill="#F15A29" d="M8.666,11.041c0,0,33,5,76.25,0.25C84.916,11.291,44.416,37.541,8.666,11.041z"/>
	<path fill="#F7941E" d="M8.166,11.041c0,0,38.25-14.5,76.25,0.25C84.416,11.291,47.666,18.541,8.166,11.041z"/>
	<path opacity="0.5" fill="#FFFFFF" d="M63.228,7.332c0,0,8.876,0.125,15.397,3.875l-19.292,1.75
		C59.333,12.957,76.813,9.707,63.228,7.332z"/>
	<ellipse opacity="0.5" fill="#FFFFFF" cx="57.25" cy="12.5" rx="1.25" ry="0.898"/>
</g>
<g>
	<g>
		<circle cx="59.831" cy="-56.671" r="25"/>
		<path fill="#FFFFFF" d="M43.723-65.897c0,0-2.708,7.154-6.557,8.906c0,0,6.415,6.132,5.987,10.075c0,0,0.855-7.885,7.27-10.075
			C50.423-56.991,44.294-60.641,43.723-65.897z"/>
		<path fill="#FFFFFF" d="M49.172-74.397c0,0-1.139,3.008-2.757,3.745c0,0,2.697,2.578,2.518,4.236c0,0,0.359-3.315,3.057-4.236
			C51.99-70.652,49.413-72.187,49.172-74.397z"/>
		<path fill="#FFFFFF" d="M55.734-46c0,0-1.783,4.711-4.318,5.865c0,0,4.225,4.039,3.943,6.635c0,0,0.563-5.191,4.789-6.635
			C60.147-40.135,56.11-42.538,55.734-46z"/>
		<circle fill="#FFFFFF" cx="65.259" cy="-60.788" r="14.942"/>
		<circle fill="#FFFFFF" cx="66.75" cy="-41.75" r="2.586"/>
	</g>
	<g>
		<circle cx="139.998" cy="-57.505" r="25"/>
		<circle fill="#FFFFFF" cx="134.092" cy="-61.288" r="14.942"/>
		<path fill="#FFFFFF" d="M157.225-67.064c0,0-2.641,6.809-6.393,8.477c0,0,6.254,5.836,5.837,9.588c0,0,0.833-7.504,7.087-9.588
			C163.756-58.588,157.78-62.062,157.225-67.064z"/>
		<path fill="#FFFFFF" d="M150.172-79.147c0,0-1.139,3.008-2.756,3.745c0,0,2.697,2.578,2.518,4.236c0,0,0.359-3.315,3.057-4.236
			C152.99-75.402,150.412-76.937,150.172-79.147z"/>
		<path fill="#FFFFFF" d="M141.901-47.166c0,0-1.783,4.711-4.319,5.865c0,0,4.226,4.038,3.943,6.635c0,0,0.563-5.192,4.788-6.635
			C146.313-41.301,142.276-43.705,141.901-47.166z"/>
		<circle fill="#FFFFFF" cx="132.5" cy="-42.25" r="2.585"/>
	</g>
</g>
<g>
	<g>
		<path d="M209-52.602c2.943-2.037,6.235-3.552,9.642-4.698c3.411-1.146,6.996-1.818,10.612-1.935
			c3.613-0.099,7.266,0.381,10.684,1.57c1.706,0.594,3.357,1.334,4.924,2.217c1.551,0.911,3.036,1.927,4.389,3.096
			c-2.96-1.994-6.164-3.589-9.547-4.579c-3.38-0.987-6.906-1.421-10.42-1.305c-3.518,0.089-7.013,0.715-10.416,1.668
			c-1.703,0.476-3.381,1.058-5.024,1.726C212.188-54.197,210.572-53.447,209-52.602z"/>
	</g>
	<g>
		<path d="M289-51.602c2.942-2.037,6.235-3.552,9.642-4.698c3.41-1.146,6.996-1.818,10.613-1.935
			c3.613-0.099,7.266,0.381,10.683,1.57c1.706,0.594,3.357,1.334,4.924,2.217c1.551,0.911,3.036,1.927,4.389,3.096
			c-2.96-1.994-6.164-3.589-9.546-4.579c-3.381-0.987-6.906-1.421-10.421-1.305c-3.518,0.089-7.013,0.715-10.416,1.668
			c-1.704,0.476-3.381,1.058-5.024,1.726C292.188-53.197,290.572-52.447,289-51.602z"/>
	</g>
</g>
<g>
	<g>
		<path d="M259.25,12.689c-0.38,0.042-0.753,0.077-1.132,0.117c0.4-0.072,0.632-0.117,0.632-0.117c-38-14.75-76.25-0.25-76.25-0.25
			c0.223,0.042,0.444,0.078,0.666,0.119C218.875,38.855,259.25,12.689,259.25,12.689z"/>
		<path fill="#F15A29" d="M183,12.439c0,0,30.25,10.833,76.25,0.25C259.25,12.689,221.5,48.834,183,12.439z"/>
		<path fill="#F7941E" d="M182.5,12.439c0,0,32-25.189,76.25,0.25C258.75,12.689,229.084,9.272,182.5,12.439z"/>
		<path opacity="0.5" fill="#FFFFFF" d="M231.228,3.832c0,0,8.876,0.125,15.397,3.875l-19.292,1.75
			C227.333,9.457,244.813,6.207,231.228,3.832z"/>
		<ellipse opacity="0.5" fill="#FFFFFF" cx="225.25" cy="9" rx="1.25" ry="0.898"/>
	</g>
</g>
</svg>
